<svg width="305" height="36" viewBox="0 0 305 36" fill="none" xmlns="http://www.w3.org/2000/svg">
<path d="M2.75391 28V8.32715H5.75684V28H2.75391ZM18.3252 17.9512C19.3799 18.3711 20.1953 18.9766 20.7715 19.7676C21.3477 20.5488 21.6357 21.4717 21.6357 22.5361V22.873C21.6357 24.4746 21.0156 25.7295 19.7754 26.6377C18.5352 27.5459 16.8213 28 14.6338 28H7.9248V25.334H14.5752C15.8447 25.334 16.8311 25.085 17.5342 24.5869C18.2471 24.0889 18.6035 23.3955 18.6035 22.5068V22.1553C18.6035 20.3291 17.2607 19.416 14.5752 19.416H7.9248V16.7207H13.9746C16.6406 16.7207 17.9736 15.8223 17.9736 14.0254V13.6592C17.9736 12.7998 17.6318 12.1406 16.9482 11.6816C16.2646 11.2227 15.2832 10.9932 14.0039 10.9932H7.9248V8.32715H14.0039C16.2109 8.32715 17.9297 8.76172 19.1602 9.63086C20.3906 10.5 21.0059 11.7207 21.0059 13.293V13.6592C21.0059 14.6064 20.7764 15.4463 20.3174 16.1787C19.8584 16.9111 19.1943 17.502 18.3252 17.9512ZM43.7988 8.32715V10.9932H26.5869L26.7041 8.32715H43.7988ZM35.5518 15.2559C38.501 15.2559 40.8203 15.8076 42.5098 16.9111C44.209 18.0146 45.0586 19.5332 45.0586 21.4668V21.9648C45.0586 23.8691 44.3213 25.373 42.8467 26.4766C41.3818 27.5703 39.292 28.1758 36.5771 28.293V25.5391C38.3057 25.4414 39.6582 25.0801 40.6348 24.4551C41.6113 23.8203 42.0996 23.0098 42.0996 22.0234V21.4229C42.0996 20.3584 41.5039 19.5234 40.3125 18.918C39.1309 18.3125 37.4854 18.0098 35.376 18.0098C33.54 18.0098 32.0312 18.249 30.8496 18.7275C29.668 19.1963 29.0479 19.8066 28.9893 20.5586H26.0449L26.4697 13.0879H29.2529L29.0771 16.75C30.5908 15.7539 32.749 15.2559 35.5518 15.2559ZM29.0479 22.7559C29.0479 23.5176 29.5264 24.1475 30.4834 24.6455C31.4404 25.1338 32.7393 25.4316 34.3799 25.5391V28.293C31.7334 28.1758 29.6826 27.6338 28.2275 26.667C26.7725 25.7002 26.0449 24.3965 26.0449 22.7559V22.6973H29.0479V22.7559Z" fill="#382B6A"/>
<path d="M70.7539 28V8.32715H73.7568V28H70.7539ZM86.3252 17.9512C87.3799 18.3711 88.1953 18.9766 88.7715 19.7676C89.3477 20.5488 89.6357 21.4717 89.6357 22.5361V22.873C89.6357 24.4746 89.0156 25.7295 87.7754 26.6377C86.5352 27.5459 84.8213 28 82.6338 28H75.9248V25.334H82.5752C83.8447 25.334 84.8311 25.085 85.5342 24.5869C86.2471 24.0889 86.6035 23.3955 86.6035 22.5068V22.1553C86.6035 20.3291 85.2607 19.416 82.5752 19.416H75.9248V16.7207H81.9746C84.6406 16.7207 85.9736 15.8223 85.9736 14.0254V13.6592C85.9736 12.7998 85.6318 12.1406 84.9482 11.6816C84.2646 11.2227 83.2832 10.9932 82.0039 10.9932H75.9248V8.32715H82.0039C84.2109 8.32715 85.9297 8.76172 87.1602 9.63086C88.3906 10.5 89.0059 11.7207 89.0059 13.293V13.6592C89.0059 14.6064 88.7764 15.4463 88.3174 16.1787C87.8584 16.9111 87.1943 17.502 86.3252 17.9512ZM102.658 28.293C99.8555 28.127 97.6631 27.3896 96.0811 26.0811C94.499 24.7725 93.708 23.0537 93.708 20.9248V15.9443C93.708 13.5908 94.4893 11.7256 96.0518 10.3486C97.6143 8.96191 99.8164 8.18555 102.658 8.01953V10.8027C100.725 10.9395 99.2451 11.4424 98.2197 12.3115C97.1943 13.1807 96.6816 14.3721 96.6816 15.8857V20.9541C96.6816 22.2529 97.1992 23.3076 98.2344 24.1182C99.2793 24.9189 100.754 25.3828 102.658 25.5098V28.293ZM104.841 8.01953C107.37 8.14648 109.362 8.76172 110.817 9.86523C112.272 10.959 113 12.3945 113 14.1719V14.377H110.041V14.1719C110.041 13.2246 109.577 12.4482 108.649 11.8428C107.731 11.2373 106.462 10.8906 104.841 10.8027V8.01953ZM104.841 25.5391C106.569 25.4512 107.922 25.1045 108.898 24.499C109.875 23.8936 110.363 23.0781 110.363 22.0527V21.7305C110.363 19.5137 108.254 18.4053 104.035 18.4053C101.926 18.4053 100.207 18.752 98.8789 19.4453V16.6328C100.236 15.9688 101.965 15.6367 104.064 15.6367C107.043 15.6367 109.333 16.1445 110.935 17.1602C112.536 18.1758 113.337 19.6406 113.337 21.5547V21.9648C113.337 23.8398 112.585 25.334 111.081 26.4473C109.577 27.5605 107.497 28.1758 104.841 28.293V25.5391Z" fill="#382B6A"/>
<path d="M138.754 28V8.32715H141.757V28H138.754ZM154.325 17.9512C155.38 18.3711 156.195 18.9766 156.771 19.7676C157.348 20.5488 157.636 21.4717 157.636 22.5361V22.873C157.636 24.4746 157.016 25.7295 155.775 26.6377C154.535 27.5459 152.821 28 150.634 28H143.925V25.334H150.575C151.845 25.334 152.831 25.085 153.534 24.5869C154.247 24.0889 154.604 23.3955 154.604 22.5068V22.1553C154.604 20.3291 153.261 19.416 150.575 19.416H143.925V16.7207H149.975C152.641 16.7207 153.974 15.8223 153.974 14.0254V13.6592C153.974 12.7998 153.632 12.1406 152.948 11.6816C152.265 11.2227 151.283 10.9932 150.004 10.9932H143.925V8.32715H150.004C152.211 8.32715 153.93 8.76172 155.16 9.63086C156.391 10.5 157.006 11.7207 157.006 13.293V13.6592C157.006 14.6064 156.776 15.4463 156.317 16.1787C155.858 16.9111 155.194 17.502 154.325 17.9512ZM169.838 10.7441C168.109 10.832 166.757 11.1787 165.78 11.7842C164.813 12.3896 164.33 13.2051 164.33 14.2305V14.5527C164.33 16.7793 166.439 17.8926 170.658 17.8926C172.748 17.8926 174.467 17.541 175.814 16.8379V19.665C174.477 20.3193 172.748 20.6465 170.629 20.6465C167.641 20.6465 165.346 20.1436 163.744 19.1377C162.152 18.1221 161.356 16.6572 161.356 14.7432V14.3184C161.356 12.4336 162.108 10.9395 163.612 9.83594C165.116 8.72266 167.191 8.10742 169.838 7.99023V10.7441ZM172.035 7.99023C174.838 8.15625 177.025 8.89355 178.598 10.2021C180.18 11.5107 180.971 13.2344 180.971 15.373V20.3535C180.971 22.707 180.189 24.5723 178.627 25.9492C177.074 27.3262 174.877 28.0977 172.035 28.2637V25.4805C173.969 25.3438 175.448 24.8457 176.474 23.9863C177.499 23.1172 178.012 21.9258 178.012 20.4121V15.3438C178.012 14.0449 177.489 12.9902 176.444 12.1797C175.409 11.3691 173.939 10.9004 172.035 10.7734V7.99023ZM169.838 28.2637C167.309 28.1367 165.316 27.5264 163.861 26.4326C162.406 25.3389 161.679 23.9033 161.679 22.126V21.9062H164.652V22.126C164.652 23.0732 165.111 23.8496 166.029 24.4551C166.947 25.0508 168.217 25.3926 169.838 25.4805V28.2637Z" fill="#382B6A"/>
<path d="M216.246 28.293C213.072 28.1074 210.558 27.1357 208.702 25.3779C206.847 23.6104 205.919 21.2959 205.919 18.4346V17.9219C205.919 15.0605 206.847 12.7412 208.702 10.9639C210.567 9.18652 213.082 8.20508 216.246 8.01953V10.8027C213.912 10.9687 212.11 11.667 210.841 12.8975C209.581 14.1279 208.951 15.793 208.951 17.8926V18.4639C208.951 20.583 209.576 22.2529 210.826 23.4736C212.086 24.6846 213.893 25.3633 216.246 25.5098V28.293ZM218.429 8.01953C220.313 8.13672 222.008 8.55664 223.512 9.2793C225.016 10.002 226.188 10.9541 227.027 12.1357C227.877 13.3174 228.302 14.6162 228.302 16.0322V16.2959H225.27V16.0322C225.27 14.6455 224.63 13.4639 223.351 12.4873C222.081 11.5107 220.44 10.9492 218.429 10.8027V8.01953ZM218.429 25.5098C220.45 25.3633 222.096 24.8115 223.365 23.8545C224.635 22.8877 225.27 21.7109 225.27 20.3242V20.0166H228.302V20.3242C228.302 22.4727 227.374 24.2939 225.519 25.7881C223.663 27.2725 221.3 28.1074 218.429 28.293V25.5098Z" fill="#382B6A"/>
</svg>
