<svg width="305" height="84" viewBox="0 0 305 84" fill="none" xmlns="http://www.w3.org/2000/svg">
<path d="M12.2461 28.293C9.07227 28.1074 6.55762 27.1357 4.70215 25.3779C2.84668 23.6104 1.91895 21.2959 1.91895 18.4346V17.9219C1.91895 15.0605 2.84668 12.7412 4.70215 10.9639C6.56738 9.18652 9.08203 8.20508 12.2461 8.01953V10.8027C9.91211 10.9687 8.11035 11.667 6.84082 12.8975C5.58105 14.1279 4.95117 15.793 4.95117 17.8926V18.4639C4.95117 20.583 5.57617 22.2529 6.82617 23.4736C8.08594 24.6846 9.89258 25.3633 12.2461 25.5098V28.293ZM14.4287 8.01953C16.3135 8.13672 18.0078 8.55664 19.5117 9.2793C21.0156 10.002 22.1875 10.9541 23.0273 12.1357C23.877 13.3174 24.3018 14.6162 24.3018 16.0322V16.2959H21.2695V16.0322C21.2695 14.6455 20.6299 13.4639 19.3506 12.4873C18.0811 11.5107 16.4404 10.9492 14.4287 10.8027V8.01953ZM14.4287 25.5098C16.4502 25.3633 18.0957 24.8115 19.3652 23.8545C20.6348 22.8877 21.2695 21.7109 21.2695 20.3242V20.0166H24.3018V20.3242C24.3018 22.4727 23.374 24.2939 21.5186 25.7881C19.6631 27.2725 17.2998 28.1074 14.4287 28.293V25.5098Z" fill="#382B6A"/>
<path d="M52.7568 8.32715V25.334H63.0547V28H49.7539V8.32715H52.7568ZM68.2109 25.334H71.3018V31.9844H68.2988V28H65.208V8.32715H68.2109V25.334ZM75.2422 28L91.0332 8.32715H94.2998L78.5234 28H75.2422ZM78.2451 20.7051L75.2422 24.5137V8.32715H78.2451V20.7051ZM91.2969 15.6074L94.2998 11.7988V28H91.3262L91.2969 15.6074ZM102.825 28H99.8223V8.32715H102.825V28ZM104.993 16.8086H115.877V8.32715H118.88V28H115.877V19.5039H104.993V16.8086ZM124.402 28V8.32715H127.405V28H124.402ZM143.885 8.32715V8.7666L134.393 17.9805L143.577 27.5459V28H140.105L131.697 19.3867H129.603V16.6914H131.697L140.281 8.32715H143.885Z" fill="#382B6A"/>
<path d="M178.246 28.293C175.072 28.1074 172.558 27.1357 170.702 25.3779C168.847 23.6104 167.919 21.2959 167.919 18.4346V17.9219C167.919 15.0605 168.847 12.7412 170.702 10.9639C172.567 9.18652 175.082 8.20508 178.246 8.01953V10.8027C175.912 10.9687 174.11 11.667 172.841 12.8975C171.581 14.1279 170.951 15.793 170.951 17.8926V18.4639C170.951 20.583 171.576 22.2529 172.826 23.4736C174.086 24.6846 175.893 25.3633 178.246 25.5098V28.293ZM180.429 8.01953C182.313 8.13672 184.008 8.55664 185.512 9.2793C187.016 10.002 188.188 10.9541 189.027 12.1357C189.877 13.3174 190.302 14.6162 190.302 16.0322V16.2959H187.27V16.0322C187.27 14.6455 186.63 13.4639 185.351 12.4873C184.081 11.5107 182.44 10.9492 180.429 10.8027V8.01953ZM180.429 25.5098C182.46 25.3633 184.105 24.8164 185.365 23.8691C186.635 22.9121 187.27 21.7305 187.27 20.3242V20.0166H190.302V20.3242C190.302 22.4727 189.374 24.2939 187.519 25.7881C185.663 27.2725 183.3 28.1074 180.429 28.293V25.5098ZM197.978 28H194.975V8.32715H197.978V28ZM200.146 8.32715H211.718V10.9932H200.146V8.32715ZM200.146 16.8086H211.117V19.4746H200.146V16.8086ZM200.146 25.334H211.718V28H200.146V25.334ZM229.794 8.32715V10.9932L221.43 11.0225L221.005 21.8184C220.937 23.9082 220.429 25.4609 219.481 26.4766C218.544 27.4922 217.143 28 215.277 28H213.9V25.334H214.955C216.078 25.334 216.884 25.041 217.372 24.4551C217.86 23.8594 218.134 22.873 218.192 21.4961L218.705 8.32715H229.794ZM231.962 8.32715H234.965V28H231.962V8.32715ZM243.476 28H240.473V8.32715H243.476V28ZM245.644 8.32715H257.216V10.9932H245.644V8.32715ZM245.644 16.8086H256.615V19.4746H245.644V16.8086ZM245.644 25.334H257.216V28H245.644V25.334ZM265.155 28H262.152V8.32715H265.155V28ZM267.323 16.8086H278.207V8.32715H281.21V28H278.207V19.5039H267.323V16.8086Z" fill="#382B6A"/>
<path d="M9.93164 54.3271H13.1689L22.5 73.5459V74H19.4385L9.93164 54.3271ZM0.600586 74V73.5459L8.70117 56.8027L10.3271 60.2598L7.35352 66.3242H13.3154L14.5752 69.0195H6.09375L3.66211 74H0.600586ZM27.4928 74H24.4898V54.3271H27.4928V74ZM29.6607 62.8086H40.5445V54.3271H43.5475V74H40.5445V65.5039H29.6607V62.8086ZM45.3322 56.9932V54.3271H65.342V56.9932H45.3322ZM56.8166 59.0879V74H53.843V59.0879H56.8166ZM67.1121 74L82.9031 54.3271H86.1697L70.3934 74H67.1121ZM70.115 66.7051L67.1121 70.5137V54.3271H70.115V66.7051ZM83.1668 61.6074L86.1697 57.7988V74H83.1961L83.1668 61.6074ZM99.6439 74.293C96.5287 74.0977 94.058 73.1113 92.2318 71.334C90.4154 69.5566 89.5072 67.2373 89.5072 64.376V63.9805C89.5072 61.1094 90.4154 58.7803 92.2318 56.9932C94.058 55.2061 96.5287 54.2148 99.6439 54.0195V56.8027C97.3979 56.9883 95.6498 57.7061 94.3998 58.9561C93.1596 60.1963 92.5395 61.8613 92.5395 63.9512V64.4346C92.5395 66.5146 93.1596 68.1748 94.3998 69.415C95.64 70.6455 97.3881 71.3438 99.6439 71.5098V74.293ZM101.841 71.5098C104.009 71.3145 105.733 70.582 107.012 69.3125C108.301 68.043 108.946 66.417 108.946 64.4346V63.9512C108.946 61.8613 108.321 60.1914 107.071 58.9414C105.83 57.6816 104.087 56.9688 101.841 56.8027V54.0195C104.956 54.2148 107.422 55.2061 109.239 56.9932C111.065 58.7803 111.978 61.1094 111.978 63.9805V64.376C111.978 67.2471 111.065 69.5713 109.239 71.3486C107.422 73.1162 104.956 74.0977 101.841 74.293V71.5098ZM115.301 74V54.3271H118.304V74H115.301ZM134.783 54.3271V54.7666L125.291 63.9805L134.476 73.5459V74H131.004L122.596 65.3867H120.501V62.6914H122.596L131.18 54.3271H134.783ZM145.855 74.293C142.681 74.1074 140.167 73.1357 138.311 71.3779C136.456 69.6104 135.528 67.2959 135.528 64.4346V63.9219C135.528 61.0605 136.456 58.7412 138.311 56.9639C140.176 55.1865 142.691 54.2051 145.855 54.0195V56.8027C143.521 56.9688 141.719 57.667 140.45 58.8975C139.19 60.1279 138.56 61.793 138.56 63.8926V64.4639C138.56 66.583 139.185 68.2529 140.435 69.4736C141.695 70.6846 143.502 71.3633 145.855 71.5098V74.293ZM148.038 54.0195C149.922 54.1367 151.617 54.5566 153.121 55.2793C154.625 56.002 155.796 56.9541 156.636 58.1357C157.486 59.3174 157.911 60.6162 157.911 62.0322V62.2959H154.879V62.0322C154.879 60.6455 154.239 59.4639 152.96 58.4873C151.69 57.5107 150.049 56.9492 148.038 56.8027V54.0195ZM148.038 71.5098C150.069 71.3633 151.714 70.8164 152.974 69.8691C154.244 68.9121 154.879 67.7305 154.879 66.3242V66.0166H157.911V66.3242C157.911 68.4727 156.983 70.2939 155.128 71.7881C153.272 73.2725 150.909 74.1074 148.038 74.293V71.5098ZM161.234 74L177.025 54.3271H180.291L164.515 74H161.234ZM164.237 66.7051L161.234 70.5137V54.3271H164.237V66.7051ZM177.288 61.6074L180.291 57.7988V74H177.318L177.288 61.6074ZM198.262 54.3271V56.9932H189.781L189.605 64.5518C189.556 67.2861 189.014 69.5469 187.979 71.334H198.262V74H185.372V77.9844H182.428V71.334H184.976C186.158 69.5176 186.778 67.2275 186.837 64.4639L187.012 54.3271H198.262ZM203.433 71.334H206.524V77.9844H203.521V74H200.43V54.3271H203.433V71.334ZM216.307 54.3271H219.544L228.875 73.5459V74H225.814L216.307 54.3271ZM206.976 74V73.5459L215.077 56.8027L216.703 60.2598L213.729 66.3242H219.691L220.951 69.0195H212.469L210.038 74H206.976ZM233.868 74H230.865V54.3271H233.868V74ZM236.036 62.8086H246.92V54.3271H249.923V74H246.92V65.5039H236.036V62.8086ZM251.708 56.9932V54.3271H271.717V56.9932H251.708ZM263.192 59.0879V74H260.218V59.0879H263.192ZM276.637 74H273.649V54.3271H276.637V74ZM295.753 74V54.3271H298.756V74H295.753ZM278.834 61.915H285.397C287.613 61.915 289.357 62.4326 290.626 63.4678C291.905 64.5029 292.545 65.9336 292.545 67.7598V68.1846C292.545 70.0107 291.905 71.4365 290.626 72.4619C289.357 73.4873 287.613 74 285.397 74H278.834V71.334H285.338C286.647 71.334 287.667 71.0605 288.4 70.5137C289.142 69.957 289.513 69.1807 289.513 68.1846V67.7598C289.513 66.7637 289.142 65.9873 288.4 65.4307C287.657 64.8643 286.637 64.5811 285.338 64.5811H278.834V61.915Z" fill="#382B6A"/>
</svg>
