<svg width="305" height="124" viewBox="0 0 305 124" fill="none" xmlns="http://www.w3.org/2000/svg">
<path d="M2.75391 28V8.32715H5.75684V28H2.75391ZM18.3252 17.9512C19.3799 18.3711 20.1953 18.9766 20.7715 19.7676C21.3477 20.5488 21.6357 21.4717 21.6357 22.5361V22.873C21.6357 24.4746 21.0156 25.7295 19.7754 26.6377C18.5352 27.5459 16.8213 28 14.6338 28H7.9248V25.334H14.5752C15.8447 25.334 16.8311 25.085 17.5342 24.5869C18.2471 24.0889 18.6035 23.3955 18.6035 22.5068V22.1553C18.6035 20.3291 17.2607 19.416 14.5752 19.416H7.9248V16.7207H13.9746C16.6406 16.7207 17.9736 15.8223 17.9736 14.0254V13.6592C17.9736 12.7998 17.6318 12.1406 16.9482 11.6816C16.2646 11.2227 15.2832 10.9932 14.0039 10.9932H7.9248V8.32715H14.0039C16.2109 8.32715 17.9297 8.76172 19.1602 9.63086C20.3906 10.5 21.0059 11.7207 21.0059 13.293V13.6592C21.0059 14.6064 20.7764 15.4463 20.3174 16.1787C19.8584 16.9111 19.1943 17.502 18.3252 17.9512ZM43.7988 8.32715V10.9932H26.5869L26.7041 8.32715H43.7988ZM35.5518 15.2559C38.501 15.2559 40.8203 15.8076 42.5098 16.9111C44.209 18.0146 45.0586 19.5332 45.0586 21.4668V21.9648C45.0586 23.8691 44.3213 25.373 42.8467 26.4766C41.3818 27.5703 39.292 28.1758 36.5771 28.293V25.5391C38.3057 25.4414 39.6582 25.0801 40.6348 24.4551C41.6113 23.8203 42.0996 23.0098 42.0996 22.0234V21.4229C42.0996 20.3584 41.5039 19.5234 40.3125 18.918C39.1309 18.3125 37.4854 18.0098 35.376 18.0098C33.54 18.0098 32.0312 18.249 30.8496 18.7275C29.668 19.1963 29.0479 19.8066 28.9893 20.5586H26.0449L26.4697 13.0879H29.2529L29.0771 16.75C30.5908 15.7539 32.749 15.2559 35.5518 15.2559ZM29.0479 22.7559C29.0479 23.5176 29.5264 24.1475 30.4834 24.6455C31.4404 25.1338 32.7393 25.4316 34.3799 25.5391V28.293C31.7334 28.1758 29.6826 27.6338 28.2275 26.667C26.7725 25.7002 26.0449 24.3965 26.0449 22.7559V22.6973H29.0479V22.7559Z" fill="#382B6A"/>
<path d="M70.7539 28V8.32715H73.7568V28H70.7539ZM86.3252 17.9512C87.3799 18.3711 88.1953 18.9766 88.7715 19.7676C89.3477 20.5488 89.6357 21.4717 89.6357 22.5361V22.873C89.6357 24.4746 89.0156 25.7295 87.7754 26.6377C86.5352 27.5459 84.8213 28 82.6338 28H75.9248V25.334H82.5752C83.8447 25.334 84.8311 25.085 85.5342 24.5869C86.2471 24.0889 86.6035 23.3955 86.6035 22.5068V22.1553C86.6035 20.3291 85.2607 19.416 82.5752 19.416H75.9248V16.7207H81.9746C84.6406 16.7207 85.9736 15.8223 85.9736 14.0254V13.6592C85.9736 12.7998 85.6318 12.1406 84.9482 11.6816C84.2646 11.2227 83.2832 10.9932 82.0039 10.9932H75.9248V8.32715H82.0039C84.2109 8.32715 85.9297 8.76172 87.1602 9.63086C88.3906 10.5 89.0059 11.7207 89.0059 13.293V13.6592C89.0059 14.6064 88.7764 15.4463 88.3174 16.1787C87.8584 16.9111 87.1943 17.502 86.3252 17.9512ZM102.658 28.293C99.8555 28.127 97.6631 27.3896 96.0811 26.0811C94.499 24.7725 93.708 23.0537 93.708 20.9248V15.9443C93.708 13.5908 94.4893 11.7256 96.0518 10.3486C97.6143 8.96191 99.8164 8.18555 102.658 8.01953V10.8027C100.725 10.9395 99.2451 11.4424 98.2197 12.3115C97.1943 13.1807 96.6816 14.3721 96.6816 15.8857V20.9541C96.6816 22.2529 97.1992 23.3076 98.2344 24.1182C99.2793 24.9189 100.754 25.3828 102.658 25.5098V28.293ZM104.841 8.01953C107.37 8.14648 109.362 8.76172 110.817 9.86523C112.272 10.959 113 12.3945 113 14.1719V14.377H110.041V14.1719C110.041 13.2246 109.577 12.4482 108.649 11.8428C107.731 11.2373 106.462 10.8906 104.841 10.8027V8.01953ZM104.841 25.5391C106.569 25.4512 107.922 25.1045 108.898 24.499C109.875 23.8936 110.363 23.0781 110.363 22.0527V21.7305C110.363 19.5137 108.254 18.4053 104.035 18.4053C101.926 18.4053 100.207 18.752 98.8789 19.4453V16.6328C100.236 15.9688 101.965 15.6367 104.064 15.6367C107.043 15.6367 109.333 16.1445 110.935 17.1602C112.536 18.1758 113.337 19.6406 113.337 21.5547V21.9648C113.337 23.8398 112.585 25.334 111.081 26.4473C109.577 27.5605 107.497 28.1758 104.841 28.293V25.5391Z" fill="#382B6A"/>
<path d="M141.757 28H138.754V8.32715H141.757V28ZM143.954 8.32715H150.883C153.08 8.32715 154.818 8.84961 156.098 9.89453C157.377 10.9395 158.017 12.3555 158.017 14.1426V14.4941C158.017 16.2812 157.377 17.7021 156.098 18.7568C154.818 19.8018 153.08 20.3242 150.883 20.3242H143.954V17.6436H150.824C152.143 17.6436 153.163 17.3652 153.886 16.8086C154.618 16.252 154.984 15.4805 154.984 14.4941V14.1426C154.984 13.1562 154.618 12.3848 153.886 11.8281C153.163 11.2715 152.143 10.9932 150.824 10.9932H143.954V8.32715ZM165.37 28H162.367V8.32715H165.37V28ZM167.567 8.32715H174.496C176.693 8.32715 178.432 8.84961 179.711 9.89453C180.99 10.9395 181.63 12.3555 181.63 14.1426V14.4941C181.63 16.2812 180.99 17.7021 179.711 18.7568C178.432 19.8018 176.693 20.3242 174.496 20.3242H167.567V17.6436H174.438C175.756 17.6436 176.776 17.3652 177.499 16.8086C178.231 16.252 178.598 15.4805 178.598 14.4941V14.1426C178.598 13.1562 178.231 12.3848 177.499 11.8281C176.776 11.2715 175.756 10.9932 174.438 10.9932H167.567V8.32715Z" fill="#382B6A"/>
<path d="M216.246 28.293C213.072 28.1074 210.558 27.1357 208.702 25.3779C206.847 23.6104 205.919 21.2959 205.919 18.4346V17.9219C205.919 15.0605 206.847 12.7412 208.702 10.9639C210.567 9.18652 213.082 8.20508 216.246 8.01953V10.8027C213.912 10.9687 212.11 11.667 210.841 12.8975C209.581 14.1279 208.951 15.793 208.951 17.8926V18.4639C208.951 20.583 209.576 22.2529 210.826 23.4736C212.086 24.6846 213.893 25.3633 216.246 25.5098V28.293ZM218.429 8.01953C220.313 8.13672 222.008 8.55664 223.512 9.2793C225.016 10.002 226.188 10.9541 227.027 12.1357C227.877 13.3174 228.302 14.6162 228.302 16.0322V16.2959H225.27V16.0322C225.27 14.6455 224.63 13.4639 223.351 12.4873C222.081 11.5107 220.44 10.9492 218.429 10.8027V8.01953ZM218.429 25.5098C220.45 25.3633 222.096 24.8115 223.365 23.8545C224.635 22.8877 225.27 21.7109 225.27 20.3242V20.0166H228.302V20.3242C228.302 22.4727 227.374 24.2939 225.519 25.7881C223.663 27.2725 221.3 28.1074 218.429 28.293V25.5098Z" fill="#382B6A"/>
<path d="M14.9707 74.3662V53.9609H17.9443V74.3662H14.9707ZM11.4258 72.1689C8.26172 72.1689 5.83008 71.4902 4.13086 70.1328C2.44141 68.7754 1.59668 66.8223 1.59668 64.2734V64.0684C1.59668 61.5098 2.44629 59.5469 4.14551 58.1797C5.84473 56.8027 8.27148 56.1143 11.4258 56.1143H12.7734V58.8242H11.4258C9.0918 58.8242 7.37305 59.2441 6.26953 60.084C5.16602 60.9238 4.61426 62.2422 4.61426 64.0391V64.3467C4.61426 66.1143 5.16602 67.4131 6.26953 68.2432C7.37305 69.0635 9.0918 69.4736 11.4258 69.4736H12.7734V72.1689H11.4258ZM20.127 72.1689V69.4736H21.4453C23.7598 69.4736 25.4736 69.0586 26.5869 68.2285C27.7002 67.3887 28.2568 66.0947 28.2568 64.3467V64.0391C28.2568 62.2617 27.6953 60.9482 26.5723 60.0986C25.459 59.249 23.75 58.8242 21.4453 58.8242H20.127V56.1143H21.4453C24.5801 56.1143 27.002 56.8027 28.7109 58.1797C30.4297 59.5566 31.2891 61.5195 31.2891 64.0684V64.2734C31.2891 66.8027 30.4346 68.751 28.7256 70.1182C27.0264 71.4854 24.5996 72.1689 21.4453 72.1689H20.127ZM44.9268 74.293C41.8115 74.0977 39.3408 73.1113 37.5146 71.334C35.6982 69.5566 34.79 67.2373 34.79 64.376V63.9805C34.79 61.1094 35.6982 58.7803 37.5146 56.9932C39.3408 55.2061 41.8115 54.2148 44.9268 54.0195V56.8027C42.6807 56.9883 40.9326 57.7061 39.6826 58.9561C38.4424 60.1963 37.8223 61.8613 37.8223 63.9512V64.4346C37.8223 66.5146 38.4424 68.1748 39.6826 69.415C40.9229 70.6455 42.6709 71.3438 44.9268 71.5098V74.293ZM47.124 71.5098C49.292 71.3145 51.0156 70.582 52.2949 69.3125C53.584 68.043 54.2285 66.417 54.2285 64.4346V63.9512C54.2285 61.8613 53.6035 60.1914 52.3535 58.9414C51.1133 57.6816 49.3701 56.9688 47.124 56.8027V54.0195C50.2393 54.2148 52.7051 55.2061 54.5215 56.9932C56.3477 58.7803 57.2607 61.1094 57.2607 63.9805V64.376C57.2607 67.2471 56.3477 69.5713 54.5215 71.3486C52.7051 73.1162 50.2393 74.0977 47.124 74.293V71.5098ZM74.6338 54.3271V56.9932L66.2695 57.0225L65.8447 67.8184C65.7764 69.9082 65.2686 71.4609 64.3213 72.4766C63.3838 73.4922 61.9824 74 60.1172 74H58.7402V71.334H59.7949C60.918 71.334 61.7236 71.041 62.2119 70.4551C62.7002 69.8594 62.9736 68.873 63.0322 67.4961L63.5449 54.3271H74.6338ZM76.8018 54.3271H79.8047V74H76.8018V54.3271ZM85.3125 74L101.104 54.3271H104.37L88.5938 74H85.3125ZM88.3154 66.7051L85.3125 70.5137V54.3271H88.3154V66.7051ZM101.367 61.6074L104.37 57.7988V74H101.396L101.367 61.6074ZM112.896 74H109.893V54.3271H112.896V74ZM115.063 54.3271H126.636V56.9932H115.063V54.3271ZM115.063 62.8086H126.035V65.4746H115.063V62.8086ZM115.063 71.334H126.636V74H115.063V71.334ZM131.572 74V54.3271H134.575V74H131.572ZM147.144 63.9512C148.198 64.3711 149.014 64.9766 149.59 65.7676C150.166 66.5488 150.454 67.4717 150.454 68.5361V68.873C150.454 70.4746 149.834 71.7295 148.594 72.6377C147.354 73.5459 145.64 74 143.452 74H136.743V71.334H143.394C144.663 71.334 145.649 71.085 146.353 70.5869C147.065 70.0889 147.422 69.3955 147.422 68.5068V68.1553C147.422 66.3291 146.079 65.416 143.394 65.416H136.743V62.7207H142.793C145.459 62.7207 146.792 61.8223 146.792 60.0254V59.6592C146.792 58.7998 146.45 58.1406 145.767 57.6816C145.083 57.2227 144.102 56.9932 142.822 56.9932H136.743V54.3271H142.822C145.029 54.3271 146.748 54.7617 147.979 55.6309C149.209 56.5 149.824 57.7207 149.824 59.293V59.6592C149.824 60.6064 149.595 61.4463 149.136 62.1787C148.677 62.9111 148.013 63.502 147.144 63.9512ZM161.279 54.3271H164.517L173.848 73.5459V74H170.786L161.279 54.3271ZM151.948 74V73.5459L160.049 56.8027L161.675 60.2598L158.701 66.3242H164.663L165.923 69.0195H157.441L155.01 74H151.948ZM176.587 60.2305C176.587 58.4043 177.231 56.9639 178.521 55.9092C179.81 54.8545 181.558 54.3271 183.765 54.3271H190.693V56.9932H183.823C182.495 56.9932 181.46 57.2812 180.718 57.8574C179.985 58.4238 179.619 59.2148 179.619 60.2305V60.5527C179.619 61.5684 179.985 62.3594 180.718 62.9258C181.46 63.4922 182.495 63.7754 183.823 63.7754H190.693V66.4121H188.174L180.308 74H176.689V73.5459L184.028 66.4121H183.765C181.558 66.4121 179.81 65.8848 178.521 64.8301C177.231 63.7754 176.587 62.3496 176.587 60.5527V60.2305ZM192.847 54.3271H195.85V74H192.847V54.3271ZM2.75391 114V94.3271H5.75684V114H2.75391ZM22.2363 94.3271V94.7666L12.7441 103.98L21.9287 113.546V114H18.457L10.0488 105.387H7.9541V102.691H10.0488L18.6328 94.3271H22.2363ZM26.8359 114L42.627 94.3271H45.8936L30.1172 114H26.8359ZM29.8389 106.705L26.8359 110.514V94.3271H29.8389V106.705ZM42.8906 101.607L45.8936 97.7988V114H42.9199L42.8906 101.607ZM60.9082 114.293C57.7344 114.107 55.2197 113.136 53.3643 111.378C51.5088 109.61 50.5811 107.296 50.5811 104.435V103.922C50.5811 101.061 51.5088 98.7412 53.3643 96.9639C55.2295 95.1865 57.7441 94.2051 60.9082 94.0195V96.8027C58.5742 96.9688 56.7725 97.667 55.5029 98.8975C54.2432 100.128 53.6133 101.793 53.6133 103.893V104.464C53.6133 106.583 54.2383 108.253 55.4883 109.474C56.748 110.685 58.5547 111.363 60.9082 111.51V114.293ZM63.0908 94.0195C64.9756 94.1367 66.6699 94.5566 68.1738 95.2793C69.6777 96.002 70.8496 96.9541 71.6895 98.1357C72.5391 99.3174 72.9639 100.616 72.9639 102.032V102.296H69.9316V102.032C69.9316 100.646 69.292 99.4639 68.0127 98.4873C66.7432 97.5107 65.1025 96.9492 63.0908 96.8027V94.0195ZM63.0908 111.51C65.1221 111.363 66.7676 110.816 68.0273 109.869C69.2969 108.912 69.9316 107.73 69.9316 106.324V106.017H72.9639V106.324C72.9639 108.473 72.0361 110.294 70.1807 111.788C68.3252 113.272 65.9619 114.107 63.0908 114.293V111.51ZM90.3369 94.3271V96.9932L81.9727 97.0225L81.5479 107.818C81.4795 109.908 80.9717 111.461 80.0244 112.477C79.0869 113.492 77.6855 114 75.8203 114H74.4434V111.334H75.498C76.6211 111.334 77.4268 111.041 77.915 110.455C78.4033 109.859 78.6768 108.873 78.7354 107.496L79.248 94.3271H90.3369ZM92.5049 94.3271H95.5078V114H92.5049V94.3271ZM110.317 114.293C107.202 114.098 104.731 113.111 102.905 111.334C101.089 109.557 100.181 107.237 100.181 104.376V103.98C100.181 101.109 101.089 98.7803 102.905 96.9932C104.731 95.2061 107.202 94.2148 110.317 94.0195V96.8027C108.071 96.9883 106.323 97.7061 105.073 98.9561C103.833 100.196 103.213 101.861 103.213 103.951V104.435C103.213 106.515 103.833 108.175 105.073 109.415C106.313 110.646 108.062 111.344 110.317 111.51V114.293ZM112.515 111.51C114.683 111.314 116.406 110.582 117.686 109.312C118.975 108.043 119.619 106.417 119.619 104.435V103.951C119.619 101.861 118.994 100.191 117.744 98.9414C116.504 97.6816 114.761 96.9688 112.515 96.8027V94.0195C115.63 94.2148 118.096 95.2061 119.912 96.9932C121.738 98.7803 122.651 101.109 122.651 103.98V104.376C122.651 107.247 121.738 109.571 119.912 111.349C118.096 113.116 115.63 114.098 112.515 114.293V111.51ZM124.058 96.9932V94.3271H144.067V96.9932H124.058ZM135.542 99.0879V114H132.568V99.0879H135.542ZM151.992 94.3271H155.229L164.561 113.546V114H161.499L151.992 94.3271ZM142.661 114V113.546L150.762 96.8027L152.388 100.26L149.414 106.324H155.376L156.636 109.02H148.154L145.723 114H142.661Z" fill="#382B6A"/>
</svg>
