<svg width="305" height="84" viewBox="0 0 305 84" fill="none" xmlns="http://www.w3.org/2000/svg">
<path d="M2.75391 28V8.32715H5.75684V28H2.75391ZM18.3252 17.9512C19.3799 18.3711 20.1953 18.9766 20.7715 19.7676C21.3477 20.5488 21.6357 21.4717 21.6357 22.5361V22.873C21.6357 24.4746 21.0156 25.7295 19.7754 26.6377C18.5352 27.5459 16.8213 28 14.6338 28H7.9248V25.334H14.5752C15.8447 25.334 16.8311 25.085 17.5342 24.5869C18.2471 24.0889 18.6035 23.3955 18.6035 22.5068V22.1553C18.6035 20.3291 17.2607 19.416 14.5752 19.416H7.9248V16.7207H13.9746C16.6406 16.7207 17.9736 15.8223 17.9736 14.0254V13.6592C17.9736 12.7998 17.6318 12.1406 16.9482 11.6816C16.2646 11.2227 15.2832 10.9932 14.0039 10.9932H7.9248V8.32715H14.0039C16.2109 8.32715 17.9297 8.76172 19.1602 9.63086C20.3906 10.5 21.0059 11.7207 21.0059 13.293V13.6592C21.0059 14.6064 20.7764 15.4463 20.3174 16.1787C19.8584 16.9111 19.1943 17.502 18.3252 17.9512ZM34.6582 28.293C31.8555 28.127 29.6631 27.3896 28.0811 26.0811C26.499 24.7725 25.708 23.0537 25.708 20.9248V15.9443C25.708 13.5908 26.4893 11.7256 28.0518 10.3486C29.6143 8.96191 31.8164 8.18555 34.6582 8.01953V10.8027C32.7246 10.9395 31.2451 11.4424 30.2197 12.3115C29.1943 13.1807 28.6816 14.3721 28.6816 15.8857V20.9541C28.6816 22.2529 29.1992 23.3076 30.2344 24.1182C31.2793 24.9189 32.7539 25.3828 34.6582 25.5098V28.293ZM36.8408 8.01953C39.3701 8.14648 41.3623 8.76172 42.8174 9.86523C44.2725 10.959 45 12.3945 45 14.1719V14.377H42.041V14.1719C42.041 13.2246 41.5771 12.4482 40.6494 11.8428C39.7314 11.2373 38.4619 10.8906 36.8408 10.8027V8.01953ZM36.8408 25.5391C38.5693 25.4512 39.9219 25.1045 40.8984 24.499C41.875 23.8936 42.3633 23.0781 42.3633 22.0527V21.7305C42.3633 19.5137 40.2539 18.4053 36.0352 18.4053C33.9258 18.4053 32.207 18.752 30.8789 19.4453V16.6328C32.2363 15.9688 33.9648 15.6367 36.0645 15.6367C39.043 15.6367 41.333 16.1445 42.9346 17.1602C44.5361 18.1758 45.3369 19.6406 45.3369 21.5547V21.9648C45.3369 23.8398 44.585 25.334 43.0811 26.4473C41.5771 27.5605 39.4971 28.1758 36.8408 28.293V25.5391Z" fill="#382B6A"/>
<path d="M70.7539 28V8.32715H73.7568V28H70.7539ZM86.3252 17.9512C87.3799 18.3711 88.1953 18.9766 88.7715 19.7676C89.3477 20.5488 89.6357 21.4717 89.6357 22.5361V22.873C89.6357 24.4746 89.0156 25.7295 87.7754 26.6377C86.5352 27.5459 84.8213 28 82.6338 28H75.9248V25.334H82.5752C83.8447 25.334 84.8311 25.085 85.5342 24.5869C86.2471 24.0889 86.6035 23.3955 86.6035 22.5068V22.1553C86.6035 20.3291 85.2607 19.416 82.5752 19.416H75.9248V16.7207H81.9746C84.6406 16.7207 85.9736 15.8223 85.9736 14.0254V13.6592C85.9736 12.7998 85.6318 12.1406 84.9482 11.6816C84.2646 11.2227 83.2832 10.9932 82.0039 10.9932H75.9248V8.32715H82.0039C84.2109 8.32715 85.9297 8.76172 87.1602 9.63086C88.3906 10.5 89.0059 11.7207 89.0059 13.293V13.6592C89.0059 14.6064 88.7764 15.4463 88.3174 16.1787C87.8584 16.9111 87.1943 17.502 86.3252 17.9512ZM101.838 10.7441C100.109 10.832 98.7568 11.1787 97.7803 11.7842C96.8135 12.3896 96.3301 13.2051 96.3301 14.2305V14.5527C96.3301 16.7793 98.4395 17.8926 102.658 17.8926C104.748 17.8926 106.467 17.541 107.814 16.8379V19.665C106.477 20.3193 104.748 20.6465 102.629 20.6465C99.6406 20.6465 97.3457 20.1436 95.7441 19.1377C94.1523 18.1221 93.3564 16.6572 93.3564 14.7432V14.3184C93.3564 12.4336 94.1084 10.9395 95.6123 9.83594C97.1162 8.72266 99.1914 8.10742 101.838 7.99023V10.7441ZM104.035 7.99023C106.838 8.15625 109.025 8.89355 110.598 10.2021C112.18 11.5107 112.971 13.2344 112.971 15.373V20.3535C112.971 22.707 112.189 24.5723 110.627 25.9492C109.074 27.3262 106.877 28.0977 104.035 28.2637V25.4805C105.969 25.3438 107.448 24.8457 108.474 23.9863C109.499 23.1172 110.012 21.9258 110.012 20.4121V15.3438C110.012 14.0449 109.489 12.9902 108.444 12.1797C107.409 11.3691 105.939 10.9004 104.035 10.7734V7.99023ZM101.838 28.2637C99.3086 28.1367 97.3164 27.5264 95.8613 26.4326C94.4062 25.3389 93.6787 23.9033 93.6787 22.126V21.9062H96.6523V22.126C96.6523 23.0732 97.1113 23.8496 98.0293 24.4551C98.9473 25.0508 100.217 25.3926 101.838 25.4805V28.2637Z" fill="#382B6A"/>
<path d="M138.754 28V8.32715H141.757V28H138.754ZM154.325 17.9512C155.38 18.3711 156.195 18.9766 156.771 19.7676C157.348 20.5488 157.636 21.4717 157.636 22.5361V22.873C157.636 24.4746 157.016 25.7295 155.775 26.6377C154.535 27.5459 152.821 28 150.634 28H143.925V25.334H150.575C151.845 25.334 152.831 25.085 153.534 24.5869C154.247 24.0889 154.604 23.3955 154.604 22.5068V22.1553C154.604 20.3291 153.261 19.416 150.575 19.416H143.925V16.7207H149.975C152.641 16.7207 153.974 15.8223 153.974 14.0254V13.6592C153.974 12.7998 153.632 12.1406 152.948 11.6816C152.265 11.2227 151.283 10.9932 150.004 10.9932H143.925V8.32715H150.004C152.211 8.32715 153.93 8.76172 155.16 9.63086C156.391 10.5 157.006 11.7207 157.006 13.293V13.6592C157.006 14.6064 156.776 15.4463 156.317 16.1787C155.858 16.9111 155.194 17.502 154.325 17.9512ZM170.922 8.32715V28H167.978V12.7656C167.021 13.3027 165.771 13.5713 164.228 13.5713H160.844V10.7734H163.993C165.351 10.7734 166.352 10.5781 166.996 10.1875C167.65 9.78711 167.978 9.16699 167.978 8.32715H170.922ZM185.336 10.8027C183.812 10.9199 182.655 11.3057 181.864 11.96C181.083 12.6045 180.692 13.4932 180.692 14.626V15.2266H177.689V14.5967C177.689 12.6045 178.349 11.0469 179.667 9.92383C180.985 8.79102 182.875 8.15625 185.336 8.01953V10.8027ZM181.322 23.2246L186.244 20.5879C187.543 19.8945 188.568 19.3037 189.32 18.8154C190.082 18.3174 190.668 17.8389 191.078 17.3799C191.488 16.9209 191.752 16.501 191.869 16.1201C191.996 15.7295 192.06 15.251 192.06 14.6846V14.3477C192.06 13.3125 191.669 12.4922 190.888 11.8867C190.116 11.2813 188.988 10.9199 187.504 10.8027V8.01953C189.906 8.16602 191.767 8.78125 193.085 9.86523C194.403 10.9395 195.062 12.3848 195.062 14.2012V14.6553C195.062 16.208 194.618 17.5166 193.729 18.5811C192.841 19.6455 191.166 20.8564 188.705 22.2139L186.845 23.2246H181.322ZM195.78 25.334V28H177.514V25.334H195.78Z" fill="#382B6A"/>
<path d="M230.246 28.293C227.072 28.1074 224.558 27.1357 222.702 25.3779C220.847 23.6104 219.919 21.2959 219.919 18.4346V17.9219C219.919 15.0605 220.847 12.7412 222.702 10.9639C224.567 9.18652 227.082 8.20508 230.246 8.01953V10.8027C227.912 10.9687 226.11 11.667 224.841 12.8975C223.581 14.1279 222.951 15.793 222.951 17.8926V18.4639C222.951 20.583 223.576 22.2529 224.826 23.4736C226.086 24.6846 227.893 25.3633 230.246 25.5098V28.293ZM232.429 8.01953C234.313 8.13672 236.008 8.55664 237.512 9.2793C239.016 10.002 240.188 10.9541 241.027 12.1357C241.877 13.3174 242.302 14.6162 242.302 16.0322V16.2959H239.27V16.0322C239.27 14.6455 238.63 13.4639 237.351 12.4873C236.081 11.5107 234.44 10.9492 232.429 10.8027V8.01953ZM232.429 25.5098C234.45 25.3633 236.096 24.8115 237.365 23.8545C238.635 22.8877 239.27 21.7109 239.27 20.3242V20.0166H242.302V20.3242C242.302 22.4727 241.374 24.2939 239.519 25.7881C237.663 27.2725 235.3 28.1074 232.429 28.293V25.5098Z" fill="#382B6A"/>
<path d="M5.75684 74H2.75391V54.3271H5.75684V74ZM7.9248 54.3271H19.4971V56.9932H7.9248V54.3271ZM7.9248 62.8086H18.8965V65.4746H7.9248V62.8086ZM7.9248 71.334H19.4971V74H7.9248V71.334Z" fill="#382B6A"/>
<path d="M47.7568 54.3271V71.334H58.0547V74H44.7539V54.3271H47.7568ZM63.2109 71.334H66.3018V77.9844H63.2988V74H60.208V54.3271H63.2109V71.334ZM70.2422 74L86.0332 54.3271H89.2998L73.5234 74H70.2422ZM73.2451 66.7051L70.2422 70.5137V54.3271H73.2451V66.7051ZM86.2969 61.6074L89.2998 57.7988V74H86.3262L86.2969 61.6074ZM97.8252 74H94.8223V54.3271H97.8252V74ZM99.9932 62.8086H110.877V54.3271H113.88V74H110.877V65.5039H99.9932V62.8086ZM119.402 74V54.3271H122.405V74H119.402ZM138.885 54.3271V54.7666L129.393 63.9805L138.577 73.5459V74H135.105L126.697 65.3867H124.603V62.6914H126.697L135.281 54.3271H138.885Z" fill="#382B6A"/>
<path d="M173.246 74.293C170.072 74.1074 167.558 73.1357 165.702 71.3779C163.847 69.6104 162.919 67.2959 162.919 64.4346V63.9219C162.919 61.0605 163.847 58.7412 165.702 56.9639C167.567 55.1865 170.082 54.2051 173.246 54.0195V56.8027C170.912 56.9688 169.11 57.667 167.841 58.8975C166.581 60.1279 165.951 61.793 165.951 63.8926V64.4639C165.951 66.583 166.576 68.2529 167.826 69.4736C169.086 70.6846 170.893 71.3633 173.246 71.5098V74.293ZM175.429 54.0195C177.313 54.1367 179.008 54.5566 180.512 55.2793C182.016 56.002 183.188 56.9541 184.027 58.1357C184.877 59.3174 185.302 60.6162 185.302 62.0322V62.2959H182.27V62.0322C182.27 60.6455 181.63 59.4639 180.351 58.4873C179.081 57.5107 177.44 56.9492 175.429 56.8027V54.0195ZM175.429 71.5098C177.46 71.3633 179.105 70.8164 180.365 69.8691C181.635 68.9121 182.27 67.7305 182.27 66.3242V66.0166H185.302V66.3242C185.302 68.4727 184.374 70.2939 182.519 71.7881C180.663 73.2725 178.3 74.1074 175.429 74.293V71.5098ZM192.978 74H189.975V54.3271H192.978V74ZM195.146 54.3271H206.718V56.9932H195.146V54.3271ZM195.146 62.8086H206.117V65.4746H195.146V62.8086ZM195.146 71.334H206.718V74H195.146V71.334ZM224.794 54.3271V56.9932L216.43 57.0225L216.005 67.8184C215.937 69.9082 215.429 71.4609 214.481 72.4766C213.544 73.4922 212.143 74 210.277 74H208.9V71.334H209.955C211.078 71.334 211.884 71.041 212.372 70.4551C212.86 69.8594 213.134 68.873 213.192 67.4961L213.705 54.3271H224.794ZM226.962 54.3271H229.965V74H226.962V54.3271ZM238.476 74H235.473V54.3271H238.476V74ZM240.644 54.3271H252.216V56.9932H240.644V54.3271ZM240.644 62.8086H251.615V65.4746H240.644V62.8086ZM240.644 71.334H252.216V74H240.644V71.334ZM260.155 74H257.152V54.3271H260.155V74ZM262.323 62.8086H273.207V54.3271H276.21V74H273.207V65.5039H262.323V62.8086Z" fill="#382B6A"/>
</svg>
