<svg width="305" height="84" viewBox="0 0 305 84" fill="none" xmlns="http://www.w3.org/2000/svg">
<path d="M2.75391 28V8.32715H5.75684V28H2.75391ZM18.3252 17.9512C19.3799 18.3711 20.1953 18.9766 20.7715 19.7676C21.3477 20.5488 21.6357 21.4717 21.6357 22.5361V22.873C21.6357 24.4746 21.0156 25.7295 19.7754 26.6377C18.5352 27.5459 16.8213 28 14.6338 28H7.9248V25.334H14.5752C15.8447 25.334 16.8311 25.085 17.5342 24.5869C18.2471 24.0889 18.6035 23.3955 18.6035 22.5068V22.1553C18.6035 20.3291 17.2607 19.416 14.5752 19.416H7.9248V16.7207H13.9746C16.6406 16.7207 17.9736 15.8223 17.9736 14.0254V13.6592C17.9736 12.7998 17.6318 12.1406 16.9482 11.6816C16.2646 11.2227 15.2832 10.9932 14.0039 10.9932H7.9248V8.32715H14.0039C16.2109 8.32715 17.9297 8.76172 19.1602 9.63086C20.3906 10.5 21.0059 11.7207 21.0059 13.293V13.6592C21.0059 14.6064 20.7764 15.4463 20.3174 16.1787C19.8584 16.9111 19.1943 17.502 18.3252 17.9512ZM43.7988 8.32715V10.9932H26.5869L26.7041 8.32715H43.7988ZM35.5518 15.2559C38.501 15.2559 40.8203 15.8076 42.5098 16.9111C44.209 18.0146 45.0586 19.5332 45.0586 21.4668V21.9648C45.0586 23.8691 44.3213 25.373 42.8467 26.4766C41.3818 27.5703 39.292 28.1758 36.5771 28.293V25.5391C38.3057 25.4414 39.6582 25.0801 40.6348 24.4551C41.6113 23.8203 42.0996 23.0098 42.0996 22.0234V21.4229C42.0996 20.3584 41.5039 19.5234 40.3125 18.918C39.1309 18.3125 37.4854 18.0098 35.376 18.0098C33.54 18.0098 32.0312 18.249 30.8496 18.7275C29.668 19.1963 29.0479 19.8066 28.9893 20.5586H26.0449L26.4697 13.0879H29.2529L29.0771 16.75C30.5908 15.7539 32.749 15.2559 35.5518 15.2559ZM29.0479 22.7559C29.0479 23.5176 29.5264 24.1475 30.4834 24.6455C31.4404 25.1338 32.7393 25.4316 34.3799 25.5391V28.293C31.7334 28.1758 29.6826 27.6338 28.2275 26.667C26.7725 25.7002 26.0449 24.3965 26.0449 22.7559V22.6973H29.0479V22.7559Z" fill="#382B6A"/>
<path d="M70.7539 28V8.32715H73.7568V28H70.7539ZM86.3252 17.9512C87.3799 18.3711 88.1953 18.9766 88.7715 19.7676C89.3477 20.5488 89.6357 21.4717 89.6357 22.5361V22.873C89.6357 24.4746 89.0156 25.7295 87.7754 26.6377C86.5352 27.5459 84.8213 28 82.6338 28H75.9248V25.334H82.5752C83.8447 25.334 84.8311 25.085 85.5342 24.5869C86.2471 24.0889 86.6035 23.3955 86.6035 22.5068V22.1553C86.6035 20.3291 85.2607 19.416 82.5752 19.416H75.9248V16.7207H81.9746C84.6406 16.7207 85.9736 15.8223 85.9736 14.0254V13.6592C85.9736 12.7998 85.6318 12.1406 84.9482 11.6816C84.2646 11.2227 83.2832 10.9932 82.0039 10.9932H75.9248V8.32715H82.0039C84.2109 8.32715 85.9297 8.76172 87.1602 9.63086C88.3906 10.5 89.0059 11.7207 89.0059 13.293V13.6592C89.0059 14.6064 88.7764 15.4463 88.3174 16.1787C87.8584 16.9111 87.1943 17.502 86.3252 17.9512ZM102.658 28.293C99.8555 28.127 97.6631 27.3896 96.0811 26.0811C94.499 24.7725 93.708 23.0537 93.708 20.9248V15.9443C93.708 13.5908 94.4893 11.7256 96.0518 10.3486C97.6143 8.96191 99.8164 8.18555 102.658 8.01953V10.8027C100.725 10.9395 99.2451 11.4424 98.2197 12.3115C97.1943 13.1807 96.6816 14.3721 96.6816 15.8857V20.9541C96.6816 22.2529 97.1992 23.3076 98.2344 24.1182C99.2793 24.9189 100.754 25.3828 102.658 25.5098V28.293ZM104.841 8.01953C107.37 8.14648 109.362 8.76172 110.817 9.86523C112.272 10.959 113 12.3945 113 14.1719V14.377H110.041V14.1719C110.041 13.2246 109.577 12.4482 108.649 11.8428C107.731 11.2373 106.462 10.8906 104.841 10.8027V8.01953ZM104.841 25.5391C106.569 25.4512 107.922 25.1045 108.898 24.499C109.875 23.8936 110.363 23.0781 110.363 22.0527V21.7305C110.363 19.5137 108.254 18.4053 104.035 18.4053C101.926 18.4053 100.207 18.752 98.8789 19.4453V16.6328C100.236 15.9688 101.965 15.6367 104.064 15.6367C107.043 15.6367 109.333 16.1445 110.935 17.1602C112.536 18.1758 113.337 19.6406 113.337 21.5547V21.9648C113.337 23.8398 112.585 25.334 111.081 26.4473C109.577 27.5605 107.497 28.1758 104.841 28.293V25.5391Z" fill="#382B6A"/>
<path d="M138.754 28V8.32715H141.757V28H138.754ZM154.325 17.9512C155.38 18.3711 156.195 18.9766 156.771 19.7676C157.348 20.5488 157.636 21.4717 157.636 22.5361V22.873C157.636 24.4746 157.016 25.7295 155.775 26.6377C154.535 27.5459 152.821 28 150.634 28H143.925V25.334H150.575C151.845 25.334 152.831 25.085 153.534 24.5869C154.247 24.0889 154.604 23.3955 154.604 22.5068V22.1553C154.604 20.3291 153.261 19.416 150.575 19.416H143.925V16.7207H149.975C152.641 16.7207 153.974 15.8223 153.974 14.0254V13.6592C153.974 12.7998 153.632 12.1406 152.948 11.6816C152.265 11.2227 151.283 10.9932 150.004 10.9932H143.925V8.32715H150.004C152.211 8.32715 153.93 8.76172 155.16 9.63086C156.391 10.5 157.006 11.7207 157.006 13.293V13.6592C157.006 14.6064 156.776 15.4463 156.317 16.1787C155.858 16.9111 155.194 17.502 154.325 17.9512ZM169.838 10.7441C168.109 10.832 166.757 11.1787 165.78 11.7842C164.813 12.3896 164.33 13.2051 164.33 14.2305V14.5527C164.33 16.7793 166.439 17.8926 170.658 17.8926C172.748 17.8926 174.467 17.541 175.814 16.8379V19.665C174.477 20.3193 172.748 20.6465 170.629 20.6465C167.641 20.6465 165.346 20.1436 163.744 19.1377C162.152 18.1221 161.356 16.6572 161.356 14.7432V14.3184C161.356 12.4336 162.108 10.9395 163.612 9.83594C165.116 8.72266 167.191 8.10742 169.838 7.99023V10.7441ZM172.035 7.99023C174.838 8.15625 177.025 8.89355 178.598 10.2021C180.18 11.5107 180.971 13.2344 180.971 15.373V20.3535C180.971 22.707 180.189 24.5723 178.627 25.9492C177.074 27.3262 174.877 28.0977 172.035 28.2637V25.4805C173.969 25.3438 175.448 24.8457 176.474 23.9863C177.499 23.1172 178.012 21.9258 178.012 20.4121V15.3438C178.012 14.0449 177.489 12.9902 176.444 12.1797C175.409 11.3691 173.939 10.9004 172.035 10.7734V7.99023ZM169.838 28.2637C167.309 28.1367 165.316 27.5264 163.861 26.4326C162.406 25.3389 161.679 23.9033 161.679 22.126V21.9062H164.652V22.126C164.652 23.0732 165.111 23.8496 166.029 24.4551C166.947 25.0508 168.217 25.3926 169.838 25.4805V28.2637Z" fill="#382B6A"/>
<path d="M209.757 28H206.754V8.32715H209.757V28ZM211.954 8.32715H218.883C221.08 8.32715 222.818 8.84961 224.098 9.89453C225.377 10.9395 226.017 12.3555 226.017 14.1426V14.4941C226.017 16.2812 225.377 17.7021 224.098 18.7568C222.818 19.8018 221.08 20.3242 218.883 20.3242H211.954V17.6436H218.824C220.143 17.6436 221.163 17.3652 221.886 16.8086C222.618 16.252 222.984 15.4805 222.984 14.4941V14.1426C222.984 13.1562 222.618 12.3848 221.886 11.8281C221.163 11.2715 220.143 10.9932 218.824 10.9932H211.954V8.32715ZM233.37 28H230.367V8.32715H233.37V28ZM235.567 8.32715H242.496C244.693 8.32715 246.432 8.84961 247.711 9.89453C248.99 10.9395 249.63 12.3555 249.63 14.1426V14.4941C249.63 16.2812 248.99 17.7021 247.711 18.7568C246.432 19.8018 244.693 20.3242 242.496 20.3242H235.567V17.6436H242.438C243.756 17.6436 244.776 17.3652 245.499 16.8086C246.231 16.252 246.598 15.4805 246.598 14.4941V14.1426C246.598 13.1562 246.231 12.3848 245.499 11.8281C244.776 11.2715 243.756 10.9932 242.438 10.9932H235.567V8.32715Z" fill="#382B6A"/>
<path d="M12.2461 74.293C9.07227 74.1074 6.55762 73.1357 4.70215 71.3779C2.84668 69.6104 1.91895 67.2959 1.91895 64.4346V63.9219C1.91895 61.0605 2.84668 58.7412 4.70215 56.9639C6.56738 55.1865 9.08203 54.2051 12.2461 54.0195V56.8027C9.91211 56.9688 8.11035 57.667 6.84082 58.8975C5.58105 60.1279 4.95117 61.793 4.95117 63.8926V64.4639C4.95117 66.583 5.57617 68.2529 6.82617 69.4736C8.08594 70.6846 9.89258 71.3633 12.2461 71.5098V74.293ZM14.4287 54.0195C16.3135 54.1367 18.0078 54.5566 19.5117 55.2793C21.0156 56.002 22.1875 56.9541 23.0273 58.1357C23.877 59.3174 24.3018 60.6162 24.3018 62.0322V62.2959H21.2695V62.0322C21.2695 60.6455 20.6299 59.4639 19.3506 58.4873C18.0811 57.5107 16.4404 56.9492 14.4287 56.8027V54.0195ZM14.4287 71.5098C16.4502 71.3633 18.0957 70.8115 19.3652 69.8545C20.6348 68.8877 21.2695 67.7109 21.2695 66.3242V66.0166H24.3018V66.3242C24.3018 68.4727 23.374 70.2939 21.5186 71.7881C19.6631 73.2725 17.2998 74.1074 14.4287 74.293V71.5098Z" fill="#382B6A"/>
<path d="M49.7539 74V54.3271H52.7568V74H49.7539ZM69.2363 54.3271V54.7666L59.7441 63.9805L68.9287 73.5459V74H65.457L57.0488 65.3867H54.9541V62.6914H57.0488L65.6328 54.3271H69.2363ZM81.4678 74.293C78.3525 74.0977 75.8818 73.1113 74.0557 71.334C72.2393 69.5566 71.3311 67.2373 71.3311 64.376V63.9805C71.3311 61.1094 72.2393 58.7803 74.0557 56.9932C75.8818 55.2061 78.3525 54.2148 81.4678 54.0195V56.8027C79.2217 56.9883 77.4736 57.7061 76.2236 58.9561C74.9834 60.1963 74.3633 61.8613 74.3633 63.9512V64.4346C74.3633 66.5146 74.9834 68.1748 76.2236 69.415C77.4639 70.6455 79.2119 71.3438 81.4678 71.5098V74.293ZM83.665 71.5098C85.833 71.3145 87.5566 70.582 88.8359 69.3125C90.125 68.043 90.7695 66.417 90.7695 64.4346V63.9512C90.7695 61.8613 90.1445 60.1914 88.8945 58.9414C87.6543 57.6816 85.9111 56.9688 83.665 56.8027V54.0195C86.7803 54.2148 89.2461 55.2061 91.0625 56.9932C92.8887 58.7803 93.8018 61.1094 93.8018 63.9805V64.376C93.8018 67.2471 92.8887 69.5713 91.0625 71.3486C89.2461 73.1162 86.7803 74.0977 83.665 74.293V71.5098ZM110.691 74.3662V53.9609H113.665V74.3662H110.691ZM107.146 72.1689C103.982 72.1689 101.551 71.4902 99.8516 70.1328C98.1621 68.7754 97.3174 66.8223 97.3174 64.2734V64.0684C97.3174 61.5098 98.167 59.5469 99.8662 58.1797C101.565 56.8027 103.992 56.1143 107.146 56.1143H108.494V58.8242H107.146C104.812 58.8242 103.094 59.2441 101.99 60.084C100.887 60.9238 100.335 62.2422 100.335 64.0391V64.3467C100.335 66.1143 100.887 67.4131 101.99 68.2432C103.094 69.0635 104.812 69.4736 107.146 69.4736H108.494V72.1689H107.146ZM115.848 72.1689V69.4736H117.166C119.48 69.4736 121.194 69.0586 122.308 68.2285C123.421 67.3887 123.978 66.0947 123.978 64.3467V64.0391C123.978 62.2617 123.416 60.9482 122.293 60.0986C121.18 59.249 119.471 58.8242 117.166 58.8242H115.848V56.1143H117.166C120.301 56.1143 122.723 56.8027 124.432 58.1797C126.15 59.5566 127.01 61.5195 127.01 64.0684V64.2734C127.01 66.8027 126.155 68.751 124.446 70.1182C122.747 71.4854 120.32 72.1689 117.166 72.1689H115.848ZM134.349 74H131.346V54.3271H134.349V74ZM136.517 54.3271H148.089V56.9932H136.517V54.3271ZM136.517 62.8086H147.488V65.4746H136.517V62.8086ZM136.517 71.334H148.089V74H136.517V71.334ZM153.025 74L168.816 54.3271H172.083L156.307 74H153.025ZM156.028 66.7051L153.025 70.5137V54.3271H156.028V66.7051ZM169.08 61.6074L172.083 57.7988V74H169.109L169.08 61.6074ZM180.608 74H177.605V54.3271H180.608V74ZM182.776 62.8086H193.66V54.3271H196.663V74H193.66V65.5039H182.776V62.8086Z" fill="#382B6A"/>
</svg>
