<?xml version="1.0" encoding="UTF-8"?><svg id="a" xmlns="http://www.w3.org/2000/svg" xmlns:xlink="http://www.w3.org/1999/xlink" viewBox="0 0 483 326"><defs><style>.c{fill:none;stroke:#fff;stroke-miterlimit:10;stroke-width:5px;}.d{fill:url(#b);}</style><linearGradient id="b" x1="447.18" y1="162.62" x2="-42.04" y2="162.62" gradientTransform="matrix(1, 0, 0, 1, 0, 0)" gradientUnits="userSpaceOnUse"><stop offset="0" stop-color="#81898c"/><stop offset=".46" stop-color="#a1a7ae"/><stop offset="1" stop-color="#929ba0"/></linearGradient></defs><path class="d" d="M485.12,325.81h-62.27c-9.21,0-18.19-1.79-26.7-5.31-8.51-3.53-16.12-8.61-22.63-15.13-6.51-6.51-11.6-14.12-15.12-22.63-3.52-8.51-5.31-17.49-5.31-26.7v-11.62c0-18.63,7.26-36.15,20.43-49.32,13.17-13.17,30.69-20.43,49.32-20.43h62.27v14.97h-62.27c-14.63,0-28.39,5.7-38.74,16.05-10.35,10.35-16.05,24.1-16.05,38.74v11.62c0,7.23,1.4,14.29,4.17,20.97,2.77,6.68,6.76,12.67,11.88,17.78,5.11,5.12,11.09,9.11,17.77,11.88,6.68,2.77,13.74,4.17,20.97,4.17h62.27v14.97Zm-375.01,0h-40.35c-18.63,0-36.15-7.25-49.33-20.43C7.26,292.21,0,274.69,0,256.06v-81.08H14.97v81.07c0,14.63,5.7,28.39,16.05,38.74,10.35,10.35,24.11,16.05,38.74,16.05h40.35v14.97Zm214.07-1.2h-14.97v-80.19c.07-7.34-1.29-14.45-4.03-21.19-2.74-6.74-6.72-12.77-11.84-17.94-5.12-5.17-11.12-9.21-17.83-12.01-6.71-2.8-13.81-4.22-21.08-4.22s-14.37,1.42-21.08,4.22c-6.71,2.8-12.72,6.84-17.83,12-5.12,5.17-9.11,11.2-11.84,17.94-2.74,6.74-4.09,13.85-4.03,21.12v80.25h-14.97v-80.19c-.08-9.19,1.64-18.24,5.13-26.82,3.49-8.58,8.56-16.27,15.08-22.84,6.52-6.58,14.16-11.72,22.71-15.29,8.55-3.56,17.58-5.37,26.84-5.37s18.29,1.81,26.84,5.37c8.55,3.56,16.19,8.71,22.71,15.29,6.52,6.58,11.59,14.27,15.08,22.84,3.49,8.58,5.21,17.63,5.13,26.89v80.12Zm-177.59,0h-14.97v-93.53h14.97v93.53Zm284.14-63.75h-49.08v-14.97h49.08v14.97Zm-284.14-44.69h-14.97v-41.19h14.97v41.19Zm-36.48-65.03h-40.35c-18.63,0-36.15-7.26-49.33-20.43C7.26,117.54,0,100.02,0,81.39V.31H14.97V81.39c0,14.63,5.7,28.39,16.05,38.74,10.35,10.35,24.11,16.05,38.74,16.05h40.35v14.97Zm375.01,0h-62.27c-9.21,0-18.19-1.79-26.7-5.31-8.51-3.53-16.12-8.61-22.63-15.13-6.51-6.51-11.6-14.13-15.12-22.63-3.52-8.51-5.31-17.49-5.31-26.7v-11.62c0-18.63,7.26-36.15,20.43-49.33C386.7,7.26,404.22,0,422.85,0h62.27V14.97h-62.27c-14.63,0-28.39,5.7-38.74,16.05-10.35,10.35-16.05,24.11-16.05,38.74v11.62c0,7.23,1.4,14.29,4.17,20.97,2.77,6.68,6.76,12.66,11.88,17.78,5.11,5.12,11.09,9.11,17.77,11.88,6.68,2.77,13.74,4.17,20.97,4.17h62.27v14.97Zm-285.48-1.2h-14.97V69.83c-.08-9.26,1.64-18.31,5.13-26.89,3.49-8.58,8.56-16.27,15.08-22.85,6.52-6.58,14.16-11.72,22.71-15.28,8.55-3.56,17.58-5.37,26.84-5.37s18.29,1.81,26.84,5.37c8.55,3.56,16.19,8.71,22.71,15.28,6.52,6.58,11.59,14.27,15.08,22.85,3.49,8.58,5.21,17.63,5.13,26.89l-14.97-.13c.07-7.27-1.29-14.38-4.03-21.12-2.74-6.74-6.72-12.77-11.84-17.94-5.12-5.17-11.12-9.21-17.83-12-6.71-2.8-13.81-4.22-21.08-4.22s-14.37,1.42-21.08,4.22-12.71,6.84-17.83,12c-5.12,5.17-9.11,11.2-11.84,17.94-2.6,6.41-3.96,13.15-4.03,20.04v81.33Zm-53.05,0h-14.97V56.41h14.97v93.54Zm284.14-63.74h-49.08v-14.97h49.08v14.97Zm-176.3,0h-41.2v-14.97h41.2v14.97Zm-107.84-44.69h-14.97V.31h14.97V41.51Z"/><path class="c" d="M316.7,69.76c.07-8.22-1.48-16.38-4.58-24-3.1-7.62-7.67-14.55-13.46-20.39-5.79-5.84-12.68-10.48-20.27-13.64-7.59-3.16-15.74-4.79-23.96-4.79s-16.37,1.63-23.96,4.79c-7.59,3.16-14.48,7.8-20.27,13.64-5.79,5.84-10.37,12.77-13.46,20.39-3.1,7.62-4.65,15.78-4.58,24h0v80.19m124.54,174.66v-80.18c.07-8.22-1.48-16.38-4.58-24-3.1-7.62-7.67-14.55-13.46-20.39-5.79-5.84-12.68-10.48-20.27-13.65-7.59-3.16-15.74-4.79-23.96-4.79s-16.37,1.63-23.96,4.79c-7.59,3.16-14.48,7.8-20.27,13.65-5.79,5.84-10.37,12.77-13.46,20.39-3.1,7.62-4.65,15.78-4.58,24v80.18M139.11,56.41v93.54m74.13-71.23h41.2M485.12,7.48h-62.27c-16.52,0-32.35,6.56-44.03,18.24-11.68,11.68-18.24,27.52-18.24,44.03v11.62c0,8.18,1.61,16.28,4.74,23.83,3.13,7.56,7.72,14.42,13.5,20.21,5.78,5.78,12.65,10.37,20.2,13.5,7.56,3.13,15.65,4.74,23.83,4.74h62.27M7.49,.31V81.39c0,16.52,6.56,32.36,18.24,44.03,11.68,11.68,27.52,18.24,44.03,18.24h40.35M7.49,174.98v81.08c0,16.51,6.56,32.35,18.24,44.03,11.68,11.68,27.52,18.24,44.03,18.24h40.35M381.66,78.71h49.08m54.39,103.44h-62.27c-16.52,0-32.35,6.56-44.03,18.24-11.68,11.68-18.24,27.51-18.24,44.03v11.62c0,8.18,1.61,16.28,4.74,23.83,3.13,7.56,7.72,14.42,13.5,20.21,5.78,5.78,12.65,10.37,20.2,13.5,7.56,3.13,15.65,4.74,23.83,4.74h62.27m-103.46-64.95h49.08M139.11,41.51V.31m0,230.77v93.53m0-108.44v-41.19"/></svg>