<?xml version="1.0" encoding="UTF-8"?><svg id="a" xmlns="http://www.w3.org/2000/svg" xmlns:xlink="http://www.w3.org/1999/xlink" viewBox="0 0 483 326"><defs><style>.c{fill:url(#b);}</style><linearGradient id="b" x1="447.18" y1="162.62" x2="-42.04" y2="162.62" gradientTransform="matrix(1, 0, 0, 1, 0, 0)" gradientUnits="userSpaceOnUse"><stop offset="0" stop-color="#81898c"/><stop offset=".46" stop-color="#a1a7ae"/><stop offset="1" stop-color="#929ba0"/></linearGradient></defs><path class="c" d="M485.12,325.81h-62.27c-9.21,0-18.19-1.79-26.7-5.31-8.51-3.53-16.12-8.62-22.63-15.13-6.51-6.51-11.59-14.12-15.12-22.63-3.52-8.5-5.31-17.49-5.31-26.7v-11.62c0-18.63,7.26-36.15,20.43-49.32,13.17-13.17,30.69-20.43,49.32-20.43h62.27v14.97h-62.27c-14.63,0-28.39,5.7-38.74,16.05-10.35,10.35-16.05,24.1-16.05,38.74v11.62c0,7.24,1.4,14.29,4.17,20.97,2.77,6.69,6.76,12.67,11.88,17.78,5.11,5.11,11.09,9.11,17.77,11.88,6.68,2.77,13.74,4.17,20.97,4.17h62.27v14.97Zm-375.01,0h-40.35c-18.63,0-36.15-7.25-49.33-20.43C7.26,292.21,0,274.69,0,256.06v-81.08H14.97v81.07c0,14.63,5.7,28.39,16.05,38.74,10.35,10.35,24.11,16.05,38.74,16.05h40.35v14.97Zm214.07-1.2h-14.97v-80.19c.07-7.34-1.29-14.45-4.03-21.19-2.74-6.74-6.72-12.77-11.84-17.94-5.12-5.17-11.12-9.21-17.83-12.01-6.71-2.8-13.81-4.22-21.08-4.22s-14.37,1.42-21.08,4.22c-6.71,2.8-12.72,6.84-17.83,12-5.12,5.17-9.11,11.2-11.84,17.94-2.74,6.74-4.09,13.85-4.03,21.12v80.25h-14.97v-80.19c-.08-9.19,1.64-18.24,5.13-26.82,3.49-8.58,8.56-16.27,15.08-22.84,6.52-6.58,14.16-11.72,22.71-15.29,8.55-3.56,17.58-5.37,26.84-5.37s18.29,1.81,26.84,5.37c8.55,3.56,16.19,8.71,22.71,15.29,6.52,6.58,11.59,14.27,15.08,22.84,3.49,8.58,5.21,17.63,5.13,26.89v80.12Zm-177.59,0h-14.97v-93.53h14.97v93.53Zm284.14-63.75h-49.08v-14.97h49.08v14.97Zm-284.14-44.69h-14.97v-41.19h14.97v41.19Zm-36.48-65.03h-40.35c-18.63,0-36.15-7.26-49.33-20.43C7.26,117.54,0,100.02,0,81.39V.31H14.97V81.39c0,14.63,5.7,28.39,16.05,38.74,10.35,10.35,24.11,16.05,38.74,16.05h40.35v14.97Zm375.01,0h-62.27c-9.21,0-18.19-1.79-26.7-5.31-8.51-3.53-16.12-8.62-22.63-15.13-6.51-6.51-11.6-14.12-15.12-22.63-3.52-8.5-5.31-17.49-5.31-26.7v-11.62c0-18.63,7.26-36.15,20.43-49.33C386.7,7.26,404.22,0,422.85,0h62.28V14.97h-62.27c-14.63,0-28.39,5.7-38.74,16.05-10.35,10.35-16.05,24.11-16.05,38.74v11.62c0,7.24,1.4,14.29,4.17,20.97,2.77,6.68,6.76,12.67,11.88,17.78,5.11,5.11,11.09,9.11,17.77,11.88,6.68,2.77,13.74,4.17,20.97,4.17h62.27v14.97Zm-285.48-1.2h-14.97V69.83c-.08-9.26,1.64-18.31,5.13-26.89,3.49-8.58,8.56-16.27,15.08-22.85,6.52-6.58,14.16-11.72,22.71-15.28,8.55-3.56,17.58-5.37,26.84-5.37s18.29,1.81,26.84,5.37c8.55,3.56,16.19,8.71,22.71,15.28,6.52,6.58,11.59,14.27,15.08,22.85,3.49,8.58,5.21,17.63,5.13,26.89l-14.97-.13c.07-7.27-1.29-14.38-4.03-21.12-2.74-6.74-6.72-12.77-11.84-17.94-5.12-5.17-11.12-9.21-17.83-12s-13.81-4.22-21.08-4.22-14.37,1.42-21.08,4.22c-6.71,2.8-12.71,6.84-17.83,12s-9.1,11.2-11.84,17.94c-2.6,6.41-3.96,13.14-4.03,20.04v81.33Zm-53.05,0h-14.97V56.41h14.97v93.54Zm284.14-63.74h-49.08v-14.97h49.08v14.97Zm-176.3,0h-41.2v-14.97h41.2v14.97Zm-107.84-44.69h-14.97V.31h14.97V41.51Z"/></svg>