<?xml version="1.0" encoding="UTF-8"?><svg id="a" xmlns="http://www.w3.org/2000/svg" xmlns:xlink="http://www.w3.org/1999/xlink" viewBox="0 0 483 326"><defs><style>.c{fill:url(#b);}</style><linearGradient id="b" x1="447.18" y1="162.62" x2="-42.04" y2="162.62" gradientTransform="matrix(1, 0, 0, 1, 0, 0)" gradientUnits="userSpaceOnUse"><stop offset="0" stop-color="#81898c"/><stop offset=".46" stop-color="#a1a7ae"/><stop offset="1" stop-color="#929ba0"/></linearGradient></defs><path class="c" d="M310.27,221.17c3.01,7.41,4.5,15.23,4.43,23.25v80.19h-5.49v-80.19c.07-7.34-1.29-14.45-4.03-21.19-2.74-6.74-6.72-12.77-11.84-17.94-5.12-5.17-11.12-9.21-17.83-12.01-6.71-2.8-13.81-4.22-21.08-4.22s-14.37,1.42-21.08,4.22c-6.71,2.8-12.72,6.84-17.83,12-5.12,5.17-9.11,11.2-11.84,17.94-2.74,6.74-4.09,13.85-4.03,21.12v80.25h-5.49v-80.2c-.07-8,1.42-15.82,4.43-23.23,3.01-7.41,7.4-14.05,13.03-19.74,5.63-5.68,12.23-10.13,19.62-13.21,7.39-3.08,15.19-4.64,23.19-4.64s15.8,1.56,23.19,4.64c7.39,3.08,13.99,7.52,19.62,13.21,5.63,5.69,10.02,12.33,13.03,19.74Zm-178.65,103.44h5.49v-93.53h-5.49v93.53Zm9.49-108.44h5.49v-41.19h-5.49v41.19ZM31.02,120.13c-10.35-10.35-16.05-24.11-16.05-38.74V.31h-5.49V81.39c0,16.1,6.27,31.24,17.65,42.62s26.52,17.65,42.62,17.65h40.35v-5.49h-40.35c-14.63,0-28.39-5.7-38.74-16.05Zm110.09,29.82h5.49V56.41h-5.49v93.54Zm0,174.67h5.49v-93.53h-5.49v93.53ZM24.31,126.83c-12.14-12.14-18.83-28.28-18.83-45.45V.31H0V81.39C0,100.02,7.26,117.54,20.43,130.71c13.18,13.18,30.69,20.43,49.33,20.43h40.35v-5.49h-40.35c-17.17,0-33.31-6.69-45.45-18.83Zm107.31,89.34h5.49v-41.19h-5.49v41.19Zm0-174.67h5.49V.31h-5.49V41.51Zm0,108.44h5.49V56.41h-5.49v93.54ZM31.02,294.8c-10.35-10.35-16.05-24.11-16.05-38.74v-81.07h-5.49v81.07c0,16.1,6.27,31.24,17.66,42.62,11.39,11.38,26.52,17.65,42.62,17.65h40.35v-5.49h-40.35c-14.63,0-28.39-5.7-38.74-16.05Zm-6.71,6.71c-12.14-12.14-18.83-28.28-18.83-45.45v-81.07H0v81.08c0,18.63,7.26,36.15,20.43,49.33,13.18,13.17,30.69,20.43,49.33,20.43h40.35v-5.49h-40.35c-17.17,0-33.31-6.69-45.45-18.82ZM141.11,41.51h5.49V.31h-5.49V41.51Zm240.55,219.36h49.08v-5.49h-49.08v5.49Zm-8.13-65.76c-13.18,13.17-20.43,30.69-20.43,49.32v11.62c0,9.21,1.78,18.19,5.31,26.7,3.52,8.51,8.61,16.13,15.12,22.63,6.51,6.51,14.12,11.6,22.63,15.13,8.51,3.52,17.49,5.31,26.7,5.31h62.27v-5.49h-62.27c-8.48,0-16.76-1.65-24.6-4.89-7.84-3.25-14.85-7.94-20.85-13.94-6-6-10.68-13.01-13.93-20.85-3.25-7.84-4.89-16.11-4.89-24.6v-11.62c0-17.17,6.69-33.3,18.83-45.44,12.14-12.14,28.28-18.83,45.44-18.83h62.27v-5.49h-62.27c-18.63,0-36.15,7.26-49.32,20.43Zm57.21-123.88h-49.08v5.49h49.08v-5.49Zm-50.5-44.09c-11.38,11.38-17.65,26.52-17.65,42.62v11.62c0,7.96,1.54,15.72,4.58,23.07,3.04,7.35,7.44,13.93,13.06,19.56,5.62,5.63,12.2,10.02,19.55,13.07,7.35,3.05,15.11,4.59,23.07,4.59h62.27v-5.49h-62.27c-7.23,0-14.29-1.4-20.97-4.17-6.68-2.77-12.66-6.77-17.77-11.88-5.11-5.11-9.11-11.09-11.88-17.78-2.77-6.68-4.17-13.74-4.17-20.97v-11.62c0-14.63,5.7-28.39,16.05-38.74,10.35-10.35,24.11-16.05,38.74-16.05h62.27v-5.49h-62.27c-16.1,0-31.23,6.27-42.62,17.66ZM422.85,0c-18.63,0-36.15,7.26-49.32,20.43-13.17,13.18-20.43,30.69-20.43,49.33v11.62c0,9.21,1.78,18.19,5.31,26.7,3.52,8.51,8.61,16.12,15.12,22.63,6.51,6.51,14.12,11.6,22.63,15.13,8.51,3.52,17.49,5.31,26.7,5.31h62.27v-5.49h-62.27c-8.48,0-16.76-1.65-24.6-4.9-7.84-3.25-14.85-7.94-20.85-13.94-6-6-10.69-13.01-13.93-20.85-3.25-7.84-4.89-16.11-4.89-24.6v-11.62c0-17.17,6.69-33.31,18.82-45.45s28.28-18.83,45.45-18.83h62.27V0h-62.27Zm-41.19,86.2h49.08v-5.49h-49.08v5.49ZM303.98,20.09c-6.52-6.58-14.16-11.72-22.71-15.28-8.55-3.56-17.58-5.37-26.84-5.37s-18.29,1.81-26.84,5.37c-8.55,3.56-16.19,8.71-22.71,15.28-6.52,6.58-11.59,14.27-15.08,22.85-3.49,8.58-5.21,17.63-5.13,26.89v80.12h5.49V69.78c-.08-8.53,1.51-16.87,4.72-24.77,3.21-7.91,7.89-14.99,13.89-21.05,6.01-6.06,13.05-10.8,20.92-14.08,7.88-3.28,16.2-4.95,24.73-4.95s16.85,1.66,24.73,4.95c7.88,3.28,14.92,8.02,20.92,14.08,6.01,6.06,10.68,13.15,13.89,21.05,3.21,7.9,4.8,16.24,4.73,24.77l5.49,.05c.08-9.26-1.64-18.31-5.13-26.89-3.49-8.58-8.56-16.26-15.08-22.85Zm126.76,225.8h-49.08v5.49h49.08v-5.49ZM254.44,71.23h-41.2v5.49h41.2v-5.49Zm38.91-40.6c5.12,5.17,9.11,11.21,11.84,17.94,2.74,6.74,4.09,13.84,4.03,21.12l7.49,.07-2-.02c.07-8-1.42-15.82-4.43-23.23-3.01-7.41-7.39-14.05-13.03-19.74-5.63-5.68-12.23-10.13-19.62-13.21s-15.19-4.64-23.19-4.64-15.81,1.56-23.19,4.64c-7.39,3.08-13.99,7.52-19.62,13.21-5.63,5.68-10.02,12.33-13.03,19.74-2.95,7.27-4.45,14.93-4.43,22.77h0v80.67h5.49V68.62c.07-6.9,1.42-13.63,4.03-20.04,2.74-6.74,6.72-12.77,11.84-17.94,5.12-5.17,11.12-9.21,17.83-12s13.81-4.22,21.08-4.22,14.37,1.42,21.08,4.22c6.71,2.8,12.71,6.84,17.83,12Zm-80.11,55.57h41.2v-5.49h-41.2v5.49Zm167,115.61c-11.38,11.38-17.65,26.52-17.65,42.61v11.62c0,7.96,1.54,15.72,4.58,23.07,3.04,7.35,7.44,13.93,13.06,19.56,5.62,5.63,12.2,10.02,19.55,13.07,7.35,3.05,15.11,4.59,23.07,4.59h62.27v-5.49h-62.27c-7.23,0-14.29-1.4-20.97-4.17-6.68-2.77-12.66-6.77-17.77-11.88-5.11-5.11-9.11-11.09-11.88-17.78-2.77-6.68-4.17-13.73-4.17-20.97v-11.62c0-14.63,5.7-28.39,16.05-38.74,10.35-10.35,24.1-16.05,38.74-16.05h62.27v-5.49h-62.27c-16.1,0-31.23,6.27-42.62,17.65Zm-76.25-7.05c-6.52-6.58-14.16-11.72-22.71-15.29-8.55-3.56-17.58-5.37-26.84-5.37s-18.29,1.81-26.84,5.37c-8.55,3.56-16.19,8.71-22.71,15.29-6.52,6.58-11.59,14.26-15.08,22.84-3.49,8.58-5.21,17.63-5.13,26.82v80.19h5.49v-80.19c-.08-8.51,1.51-16.85,4.73-24.76,3.21-7.91,7.89-14.99,13.89-21.05,6.01-6.06,13.05-10.8,20.92-14.08,7.88-3.28,16.2-4.95,24.73-4.95s16.85,1.67,24.73,4.95c7.88,3.28,14.92,8.02,20.92,14.08,6.01,6.06,10.68,13.14,13.89,21.05,3.21,7.91,4.8,16.24,4.73,24.77v80.17h5.49v-80.12c.08-9.26-1.64-18.31-5.13-26.89-3.49-8.58-8.56-16.26-15.08-22.84Z"/></svg>