<svg width="483" height="375" viewBox="0 0 483 375" fill="none" xmlns="http://www.w3.org/2000/svg">
<g clip-path="url(#clip0_740_8913)">
<path d="M310.27 221.17C313.28 228.58 314.77 236.4 314.7 244.42V324.61H309.21V244.42C309.28 237.08 307.92 229.97 305.18 223.23C302.44 216.49 298.46 210.46 293.34 205.29C288.22 200.12 282.22 196.08 275.51 193.28C268.8 190.48 261.7 189.06 254.43 189.06C247.16 189.06 240.06 190.48 233.35 193.28C226.64 196.08 220.63 200.12 215.52 205.28C210.4 210.45 206.41 216.48 203.68 223.22C200.94 229.96 199.59 237.07 199.65 244.34V324.59H194.16V244.39C194.09 236.39 195.58 228.57 198.59 221.16C201.6 213.75 205.99 207.11 211.62 201.42C217.25 195.74 223.85 191.29 231.24 188.21C238.63 185.13 246.43 183.57 254.43 183.57C262.43 183.57 270.23 185.13 277.62 188.21C285.01 191.29 291.61 195.73 297.24 201.42C302.87 207.11 307.26 213.75 310.27 221.16V221.17ZM131.62 324.61H137.11V231.08H131.62V324.61ZM141.11 216.17H146.6V174.98H141.11V216.17ZM31.02 120.13C20.67 109.78 14.97 96.0199 14.97 81.3899V0.309941H9.48V81.3899C9.48 97.4899 15.75 112.63 27.13 124.01C38.51 135.39 53.65 141.66 69.75 141.66H110.1V136.17H69.75C55.12 136.17 41.36 130.47 31.01 120.12L31.02 120.13ZM141.11 149.95H146.6V56.4099H141.11V149.95ZM141.11 324.62H146.6V231.09H141.11V324.62ZM24.31 126.83C12.17 114.69 5.48 98.5499 5.48 81.3799V0.309941H0V81.3899C0 100.02 7.26 117.54 20.43 130.71C33.61 143.89 51.12 151.14 69.76 151.14H110.11V145.65H69.76C52.59 145.65 36.45 138.96 24.31 126.82V126.83ZM131.62 216.17H137.11V174.98H131.62V216.17ZM131.62 41.4999H137.11V0.309941H131.62V41.5099V41.4999ZM131.62 149.94H137.11V56.4099H131.62V149.95V149.94ZM31.02 294.8C20.67 284.45 14.97 270.69 14.97 256.06V174.99H9.48V256.06C9.48 272.16 15.75 287.3 27.14 298.68C38.53 310.06 53.66 316.33 69.76 316.33H110.11V310.84H69.76C55.13 310.84 41.37 305.14 31.02 294.79V294.8ZM24.31 301.51C12.17 289.37 5.48 273.23 5.48 256.06V174.99H0V256.07C0 274.7 7.26 292.22 20.43 305.4C33.61 318.57 51.12 325.83 69.76 325.83H110.11V320.34H69.76C52.59 320.34 36.45 313.65 24.31 301.52V301.51ZM141.11 41.5099H146.6V0.309941H141.11V41.5099ZM381.66 260.87H430.74V255.38H381.66V260.87ZM373.53 195.11C360.35 208.28 353.1 225.8 353.1 244.43V256.05C353.1 265.26 354.88 274.24 358.41 282.75C361.93 291.26 367.02 298.88 373.53 305.38C380.04 311.89 387.65 316.98 396.16 320.51C404.67 324.03 413.65 325.82 422.86 325.82H485.13V320.33H422.86C414.38 320.33 406.1 318.68 398.26 315.44C390.42 312.19 383.41 307.5 377.41 301.5C371.41 295.5 366.73 288.49 363.48 280.65C360.23 272.81 358.59 264.54 358.59 256.05V244.43C358.59 227.26 365.28 211.13 377.42 198.99C389.56 186.85 405.7 180.16 422.86 180.16H485.13V174.67H422.86C404.23 174.67 386.71 181.93 373.54 195.1L373.53 195.11ZM430.74 71.2299H381.66V76.7199H430.74V71.2299ZM380.24 27.1399C368.86 38.5199 362.59 53.6599 362.59 69.7599V81.3799C362.59 89.3399 364.13 97.0999 367.17 104.45C370.21 111.8 374.61 118.38 380.23 124.01C385.85 129.64 392.43 134.03 399.78 137.08C407.13 140.13 414.89 141.67 422.85 141.67H485.12V136.18H422.85C415.62 136.18 408.56 134.78 401.88 132.01C395.2 129.24 389.22 125.24 384.11 120.13C379 115.02 375 109.04 372.23 102.35C369.46 95.6699 368.06 88.6099 368.06 81.3799V69.7599C368.06 55.1299 373.76 41.3699 384.11 31.0199C394.46 20.6699 408.22 14.9699 422.85 14.9699H485.12V9.47994H422.85C406.75 9.47994 391.62 15.7499 380.23 27.1399H380.24ZM422.85 -5.85914e-05C404.22 -5.85914e-05 386.7 7.25994 373.53 20.4299C360.36 33.6099 353.1 51.1199 353.1 69.7599V81.3799C353.1 90.5899 354.88 99.5699 358.41 108.08C361.93 116.59 367.02 124.2 373.53 130.71C380.04 137.22 387.65 142.31 396.16 145.84C404.67 149.36 413.65 151.15 422.86 151.15H485.13V145.66H422.86C414.38 145.66 406.1 144.01 398.26 140.76C390.42 137.51 383.41 132.82 377.41 126.82C371.41 120.82 366.72 113.81 363.48 105.97C360.23 98.1299 358.59 89.8599 358.59 81.3699V69.7499C358.59 52.5799 365.28 36.4399 377.41 24.2999C389.54 12.1599 405.69 5.46994 422.86 5.46994H485.13V-5.85914e-05H422.86H422.85ZM381.66 86.1999H430.74V80.7099H381.66V86.1999ZM303.98 20.0899C297.46 13.5099 289.82 8.36994 281.27 4.80994C272.72 1.24994 263.69 -0.560059 254.43 -0.560059C245.17 -0.560059 236.14 1.24994 227.59 4.80994C219.04 8.36994 211.4 13.5199 204.88 20.0899C198.36 26.6699 193.29 34.3599 189.8 42.9399C186.31 51.5199 184.59 60.5699 184.67 69.8299V149.95H190.16V69.7799C190.08 61.2499 191.67 52.9099 194.88 45.0099C198.09 37.0999 202.77 30.0199 208.77 23.9599C214.78 17.8999 221.82 13.1599 229.69 9.87994C237.57 6.59994 245.89 4.92994 254.42 4.92994C262.95 4.92994 271.27 6.58994 279.15 9.87994C287.03 13.1599 294.07 17.8999 300.07 23.9599C306.08 30.0199 310.75 37.1099 313.96 45.0099C317.17 52.9099 318.76 61.2499 318.69 69.7799L324.18 69.8299C324.26 60.5699 322.54 51.5199 319.05 42.9399C315.56 34.3599 310.49 26.6799 303.97 20.0899H303.98ZM430.74 245.89H381.66V251.38H430.74V245.89ZM254.44 71.2299H213.24V76.7199H254.44V71.2299ZM293.35 30.6299C298.47 35.7999 302.46 41.8399 305.19 48.5699C307.93 55.3099 309.28 62.4099 309.22 69.6899L316.71 69.7599L314.71 69.7399C314.78 61.7399 313.29 53.9199 310.28 46.5099C307.27 39.0999 302.89 32.4599 297.25 26.7699C291.62 21.0899 285.02 16.6399 277.63 13.5599C270.24 10.4799 262.44 8.91994 254.44 8.91994C246.44 8.91994 238.63 10.4799 231.25 13.5599C223.86 16.6399 217.26 21.0799 211.63 26.7699C206 32.4499 201.61 39.0999 198.6 46.5099C195.65 53.7799 194.15 61.4399 194.17 69.2799V149.95H199.66V68.6199C199.73 61.7199 201.08 54.9899 203.69 48.5799C206.43 41.8399 210.41 35.8099 215.53 30.6399C220.65 25.4699 226.65 21.4299 233.36 18.6399C240.07 15.8499 247.17 14.4199 254.44 14.4199C261.71 14.4199 268.81 15.8399 275.52 18.6399C282.23 21.4399 288.23 25.4799 293.35 30.6399V30.6299ZM213.24 86.1999H254.44V80.7099H213.24V86.1999ZM380.24 201.81C368.86 213.19 362.59 228.33 362.59 244.42V256.04C362.59 264 364.13 271.76 367.17 279.11C370.21 286.46 374.61 293.04 380.23 298.67C385.85 304.3 392.43 308.69 399.78 311.74C407.13 314.79 414.89 316.33 422.85 316.33H485.12V310.84H422.85C415.62 310.84 408.56 309.44 401.88 306.67C395.2 303.9 389.22 299.9 384.11 294.79C379 289.68 375 283.7 372.23 277.01C369.46 270.33 368.06 263.28 368.06 256.04V244.42C368.06 229.79 373.76 216.03 384.11 205.68C394.46 195.33 408.21 189.63 422.85 189.63H485.12V184.14H422.85C406.75 184.14 391.62 190.41 380.23 201.79L380.24 201.81ZM303.99 194.76C297.47 188.18 289.83 183.04 281.28 179.47C272.73 175.91 263.7 174.1 254.44 174.1C245.18 174.1 236.15 175.91 227.6 179.47C219.05 183.03 211.41 188.18 204.89 194.76C198.37 201.34 193.3 209.02 189.81 217.6C186.32 226.18 184.6 235.23 184.68 244.42V324.61H190.17V244.42C190.09 235.91 191.68 227.57 194.9 219.66C198.11 211.75 202.79 204.67 208.79 198.61C214.8 192.55 221.84 187.81 229.71 184.53C237.59 181.25 245.91 179.58 254.44 179.58C262.97 179.58 271.29 181.25 279.17 184.53C287.05 187.81 294.09 192.55 300.09 198.61C306.1 204.67 310.77 211.75 313.98 219.66C317.19 227.57 318.78 235.9 318.71 244.43V324.6H324.2V244.48C324.28 235.22 322.56 226.17 319.07 217.59C315.58 209.01 310.51 201.33 303.99 194.75V194.76Z" fill="url(#paint0_linear_740_8913)"/>
</g>
<path d="M4.63438 358.375V371.775H12.4594V374.425H1.60938V358.375H4.63438Z" fill="url(#paint1_linear_740_8913)"/>
<path d="M128.986 360.825H125.236V371.975H128.986V374.425H118.436V371.975H122.186V360.825H118.436V358.375H128.986V360.825Z" fill="url(#paint2_linear_740_8913)"/>
<path d="M240.713 368.175V365.55H246.963V374.425H244.713L244.513 372.55C243.73 374.05 242.488 374.8 240.788 374.8C238.755 374.8 237.197 374.033 236.113 372.5C235.047 370.967 234.513 368.933 234.513 366.4C234.513 363.85 235.072 361.817 236.188 360.3C237.322 358.767 238.988 358 241.188 358C242.305 358 243.322 358.208 244.238 358.625C245.155 359.025 246.105 359.667 247.088 360.55L245.288 362.725C244.355 361.958 243.638 361.442 243.138 361.175C242.588 360.875 241.913 360.725 241.113 360.725C239.963 360.725 239.088 361.208 238.488 362.175C237.888 363.142 237.588 364.55 237.588 366.4C237.588 370.183 238.747 372.075 241.063 372.075C242.097 372.075 242.872 371.75 243.388 371.1C243.922 370.45 244.188 369.542 244.188 368.375V368.175H240.713Z" fill="url(#paint3_linear_740_8913)"/>
<path d="M363.365 358.375V374.425H360.34V367.45H355.59V374.425H352.565V358.375H355.59V364.825H360.34V358.375H363.365Z" fill="url(#paint4_linear_740_8913)"/>
<path d="M481.392 358.375V361.05H476.617V374.425H473.567V361.05H468.792V358.375H481.392Z" fill="url(#paint5_linear_740_8913)"/>
<defs>
<linearGradient id="paint0_linear_740_8913" x1="447.18" y1="162.62" x2="-42.04" y2="162.62" gradientUnits="userSpaceOnUse">
<stop stop-color="#81898C"/>
<stop offset="0.46" stop-color="#A1A7AE"/>
<stop offset="1" stop-color="#929BA0"/>
</linearGradient>
<linearGradient id="paint1_linear_740_8913" x1="481.34" y1="381.425" x2="-93.6601" y2="381.425" gradientUnits="userSpaceOnUse">
<stop stop-color="#81898C"/>
<stop offset="0.463542" stop-color="#A1A7AE"/>
<stop offset="1" stop-color="#929BA0"/>
</linearGradient>
<linearGradient id="paint2_linear_740_8913" x1="481.34" y1="381.425" x2="-93.6601" y2="381.425" gradientUnits="userSpaceOnUse">
<stop stop-color="#81898C"/>
<stop offset="0.463542" stop-color="#A1A7AE"/>
<stop offset="1" stop-color="#929BA0"/>
</linearGradient>
<linearGradient id="paint3_linear_740_8913" x1="481.34" y1="381.425" x2="-93.6601" y2="381.425" gradientUnits="userSpaceOnUse">
<stop stop-color="#81898C"/>
<stop offset="0.463542" stop-color="#A1A7AE"/>
<stop offset="1" stop-color="#929BA0"/>
</linearGradient>
<linearGradient id="paint4_linear_740_8913" x1="481.34" y1="381.425" x2="-93.6601" y2="381.425" gradientUnits="userSpaceOnUse">
<stop stop-color="#81898C"/>
<stop offset="0.463542" stop-color="#A1A7AE"/>
<stop offset="1" stop-color="#929BA0"/>
</linearGradient>
<linearGradient id="paint5_linear_740_8913" x1="481.34" y1="381.425" x2="-93.6601" y2="381.425" gradientUnits="userSpaceOnUse">
<stop stop-color="#81898C"/>
<stop offset="0.463542" stop-color="#A1A7AE"/>
<stop offset="1" stop-color="#929BA0"/>
</linearGradient>
<clipPath id="clip0_740_8913">
<rect width="483" height="326" fill="white"/>
</clipPath>
</defs>
</svg>
