<svg width="305" height="124" viewBox="0 0 305 124" fill="none" xmlns="http://www.w3.org/2000/svg">
<path d="M2.75391 28V8.32715H5.75684V28H2.75391ZM18.3252 17.9512C19.3799 18.3711 20.1953 18.9766 20.7715 19.7676C21.3477 20.5488 21.6357 21.4717 21.6357 22.5361V22.873C21.6357 24.4746 21.0156 25.7295 19.7754 26.6377C18.5352 27.5459 16.8213 28 14.6338 28H7.9248V25.334H14.5752C15.8447 25.334 16.8311 25.085 17.5342 24.5869C18.2471 24.0889 18.6035 23.3955 18.6035 22.5068V22.1553C18.6035 20.3291 17.2607 19.416 14.5752 19.416H7.9248V16.7207H13.9746C16.6406 16.7207 17.9736 15.8223 17.9736 14.0254V13.6592C17.9736 12.7998 17.6318 12.1406 16.9482 11.6816C16.2646 11.2227 15.2832 10.9932 14.0039 10.9932H7.9248V8.32715H14.0039C16.2109 8.32715 17.9297 8.76172 19.1602 9.63086C20.3906 10.5 21.0059 11.7207 21.0059 13.293V13.6592C21.0059 14.6064 20.7764 15.4463 20.3174 16.1787C19.8584 16.9111 19.1943 17.502 18.3252 17.9512ZM34.6582 28.293C31.8555 28.127 29.6631 27.3896 28.0811 26.0811C26.499 24.7725 25.708 23.0537 25.708 20.9248V15.9443C25.708 13.5908 26.4893 11.7256 28.0518 10.3486C29.6143 8.96191 31.8164 8.18555 34.6582 8.01953V10.8027C32.7246 10.9395 31.2451 11.4424 30.2197 12.3115C29.1943 13.1807 28.6816 14.3721 28.6816 15.8857V20.9541C28.6816 22.2529 29.1992 23.3076 30.2344 24.1182C31.2793 24.9189 32.7539 25.3828 34.6582 25.5098V28.293ZM36.8408 8.01953C39.3701 8.14648 41.3623 8.76172 42.8174 9.86523C44.2725 10.959 45 12.3945 45 14.1719V14.377H42.041V14.1719C42.041 13.2246 41.5771 12.4482 40.6494 11.8428C39.7314 11.2373 38.4619 10.8906 36.8408 10.8027V8.01953ZM36.8408 25.5391C38.5693 25.4512 39.9219 25.1045 40.8984 24.499C41.875 23.8936 42.3633 23.0781 42.3633 22.0527V21.7305C42.3633 19.5137 40.2539 18.4053 36.0352 18.4053C33.9258 18.4053 32.207 18.752 30.8789 19.4453V16.6328C32.2363 15.9688 33.9648 15.6367 36.0645 15.6367C39.043 15.6367 41.333 16.1445 42.9346 17.1602C44.5361 18.1758 45.3369 19.6406 45.3369 21.5547V21.9648C45.3369 23.8398 44.585 25.334 43.0811 26.4473C41.5771 27.5605 39.4971 28.1758 36.8408 28.293V25.5391Z" fill="#382B6A"/>
<path d="M70.7539 28V8.32715H73.7568V28H70.7539ZM86.3252 17.9512C87.3799 18.3711 88.1953 18.9766 88.7715 19.7676C89.3477 20.5488 89.6357 21.4717 89.6357 22.5361V22.873C89.6357 24.4746 89.0156 25.7295 87.7754 26.6377C86.5352 27.5459 84.8213 28 82.6338 28H75.9248V25.334H82.5752C83.8447 25.334 84.8311 25.085 85.5342 24.5869C86.2471 24.0889 86.6035 23.3955 86.6035 22.5068V22.1553C86.6035 20.3291 85.2607 19.416 82.5752 19.416H75.9248V16.7207H81.9746C84.6406 16.7207 85.9736 15.8223 85.9736 14.0254V13.6592C85.9736 12.7998 85.6318 12.1406 84.9482 11.6816C84.2646 11.2227 83.2832 10.9932 82.0039 10.9932H75.9248V8.32715H82.0039C84.2109 8.32715 85.9297 8.76172 87.1602 9.63086C88.3906 10.5 89.0059 11.7207 89.0059 13.293V13.6592C89.0059 14.6064 88.7764 15.4463 88.3174 16.1787C87.8584 16.9111 87.1943 17.502 86.3252 17.9512ZM101.838 10.7441C100.109 10.832 98.7568 11.1787 97.7803 11.7842C96.8135 12.3896 96.3301 13.2051 96.3301 14.2305V14.5527C96.3301 16.7793 98.4395 17.8926 102.658 17.8926C104.748 17.8926 106.467 17.541 107.814 16.8379V19.665C106.477 20.3193 104.748 20.6465 102.629 20.6465C99.6406 20.6465 97.3457 20.1436 95.7441 19.1377C94.1523 18.1221 93.3564 16.6572 93.3564 14.7432V14.3184C93.3564 12.4336 94.1084 10.9395 95.6123 9.83594C97.1162 8.72266 99.1914 8.10742 101.838 7.99023V10.7441ZM104.035 7.99023C106.838 8.15625 109.025 8.89355 110.598 10.2021C112.18 11.5107 112.971 13.2344 112.971 15.373V20.3535C112.971 22.707 112.189 24.5723 110.627 25.9492C109.074 27.3262 106.877 28.0977 104.035 28.2637V25.4805C105.969 25.3438 107.448 24.8457 108.474 23.9863C109.499 23.1172 110.012 21.9258 110.012 20.4121V15.3438C110.012 14.0449 109.489 12.9902 108.444 12.1797C107.409 11.3691 105.939 10.9004 104.035 10.7734V7.99023ZM101.838 28.2637C99.3086 28.1367 97.3164 27.5264 95.8613 26.4326C94.4062 25.3389 93.6787 23.9033 93.6787 22.126V21.9062H96.6523V22.126C96.6523 23.0732 97.1113 23.8496 98.0293 24.4551C98.9473 25.0508 100.217 25.3926 101.838 25.4805V28.2637Z" fill="#382B6A"/>
<path d="M148.246 28.293C145.072 28.1074 142.558 27.1357 140.702 25.3779C138.847 23.6104 137.919 21.2959 137.919 18.4346V17.9219C137.919 15.0605 138.847 12.7412 140.702 10.9639C142.567 9.18652 145.082 8.20508 148.246 8.01953V10.8027C145.912 10.9687 144.11 11.667 142.841 12.8975C141.581 14.1279 140.951 15.793 140.951 17.8926V18.4639C140.951 20.583 141.576 22.2529 142.826 23.4736C144.086 24.6846 145.893 25.3633 148.246 25.5098V28.293ZM150.429 8.01953C152.313 8.13672 154.008 8.55664 155.512 9.2793C157.016 10.002 158.188 10.9541 159.027 12.1357C159.877 13.3174 160.302 14.6162 160.302 16.0322V16.2959H157.27V16.0322C157.27 14.6455 156.63 13.4639 155.351 12.4873C154.081 11.5107 152.44 10.9492 150.429 10.8027V8.01953ZM150.429 25.5098C152.45 25.3633 154.096 24.8115 155.365 23.8545C156.635 22.8877 157.27 21.7109 157.27 20.3242V20.0166H160.302V20.3242C160.302 22.4727 159.374 24.2939 157.519 25.7881C155.663 27.2725 153.3 28.1074 150.429 28.293V25.5098Z" fill="#382B6A"/>
<path d="M188.757 28H185.754V8.32715H188.757V28ZM190.954 8.32715H197.883C200.08 8.32715 201.818 8.84961 203.098 9.89453C204.377 10.9395 205.017 12.3555 205.017 14.1426V14.4941C205.017 16.2812 204.377 17.7021 203.098 18.7568C201.818 19.8018 200.08 20.3242 197.883 20.3242H190.954V17.6436H197.824C199.143 17.6436 200.163 17.3652 200.886 16.8086C201.618 16.252 201.984 15.4805 201.984 14.4941V14.1426C201.984 13.1562 201.618 12.3848 200.886 11.8281C200.163 11.2715 199.143 10.9932 197.824 10.9932H190.954V8.32715ZM212.37 28H209.367V8.32715H212.37V28ZM214.567 8.32715H221.496C223.693 8.32715 225.432 8.84961 226.711 9.89453C227.99 10.9395 228.63 12.3555 228.63 14.1426V14.4941C228.63 16.2812 227.99 17.7021 226.711 18.7568C225.432 19.8018 223.693 20.3242 221.496 20.3242H214.567V17.6436H221.438C222.756 17.6436 223.776 17.3652 224.499 16.8086C225.231 16.252 225.598 15.4805 225.598 14.4941V14.1426C225.598 13.1562 225.231 12.3848 224.499 11.8281C223.776 11.2715 222.756 10.9932 221.438 10.9932H214.567V8.32715Z" fill="#382B6A"/>
<path d="M16.0547 56.9932H5.75684V74H2.75391V54.3271H16.0547V56.9932ZM18.208 54.3271H21.2109V74H18.208V54.3271ZM33.8965 54.3271H37.1338L46.4648 73.5459V74H43.4033L33.8965 54.3271ZM24.5654 74V73.5459L32.666 56.8027L34.292 60.2598L31.3184 66.3242H37.2803L38.54 69.0195H30.0586L27.627 74H24.5654ZM52.8076 74H49.8047V54.3271H52.8076V74ZM54.9756 62.8086H65.8594V54.3271H68.8623V74H65.8594V65.5039H54.9756V62.8086ZM71.9971 56.9932V54.3271H92.0068V56.9932H71.9971ZM83.4814 59.0879V74H80.5078V59.0879H83.4814ZM103.55 74.293C100.435 74.0977 97.9639 73.1113 96.1377 71.334C94.3213 69.5566 93.4131 67.2373 93.4131 64.376V63.9805C93.4131 61.1094 94.3213 58.7803 96.1377 56.9932C97.9639 55.2061 100.435 54.2148 103.55 54.0195V56.8027C101.304 56.9883 99.5557 57.7061 98.3057 58.9561C97.0654 60.1963 96.4453 61.8613 96.4453 63.9512V64.4346C96.4453 66.5146 97.0654 68.1748 98.3057 69.415C99.5459 70.6455 101.294 71.3438 103.55 71.5098V74.293ZM105.747 71.5098C107.915 71.3145 109.639 70.582 110.918 69.3125C112.207 68.043 112.852 66.417 112.852 64.4346V63.9512C112.852 61.8613 112.227 60.1914 110.977 58.9414C109.736 57.6816 107.993 56.9688 105.747 56.8027V54.0195C108.862 54.2148 111.328 55.2061 113.145 56.9932C114.971 58.7803 115.884 61.1094 115.884 63.9805V64.376C115.884 67.2471 114.971 69.5713 113.145 71.3486C111.328 73.1162 108.862 74.0977 105.747 74.293V71.5098ZM117.29 56.9932V54.3271H137.3V56.9932H117.29ZM128.774 59.0879V74H125.801V59.0879H128.774ZM143.423 74H140.42V54.3271H143.423V74ZM145.591 54.3271H157.163V56.9932H145.591V54.3271ZM145.591 62.8086H156.562V65.4746H145.591V62.8086ZM145.591 71.334H157.163V74H145.591V71.334ZM165.103 74H162.1V54.3271H165.103V74ZM167.271 62.8086H178.154V54.3271H181.157V74H178.154V65.5039H167.271V62.8086ZM195.981 74.293C192.866 74.0977 190.396 73.1113 188.569 71.334C186.753 69.5566 185.845 67.2373 185.845 64.376V63.9805C185.845 61.1094 186.753 58.7803 188.569 56.9932C190.396 55.2061 192.866 54.2148 195.981 54.0195V56.8027C193.735 56.9883 191.987 57.7061 190.737 58.9561C189.497 60.1963 188.877 61.8613 188.877 63.9512V64.4346C188.877 66.5146 189.497 68.1748 190.737 69.415C191.978 70.6455 193.726 71.3438 195.981 71.5098V74.293ZM198.179 71.5098C200.347 71.3145 202.07 70.582 203.35 69.3125C204.639 68.043 205.283 66.417 205.283 64.4346V63.9512C205.283 61.8613 204.658 60.1914 203.408 58.9414C202.168 57.6816 200.425 56.9688 198.179 56.8027V54.0195C201.294 54.2148 203.76 55.2061 205.576 56.9932C207.402 58.7803 208.315 61.1094 208.315 63.9805V64.376C208.315 67.2471 207.402 69.5713 205.576 71.3486C203.76 73.1162 201.294 74.0977 198.179 74.293V71.5098ZM212.988 74V54.3271H215.991V74H212.988ZM228.56 63.9512C229.614 64.3711 230.43 64.9766 231.006 65.7676C231.582 66.5488 231.87 67.4717 231.87 68.5361V68.873C231.87 70.4746 231.25 71.7295 230.01 72.6377C228.77 73.5459 227.056 74 224.868 74H218.159V71.334H224.81C226.079 71.334 227.065 71.085 227.769 70.5869C228.481 70.0889 228.838 69.3955 228.838 68.5068V68.1553C228.838 66.3291 227.495 65.416 224.81 65.416H218.159V62.7207H224.209C226.875 62.7207 228.208 61.8223 228.208 60.0254V59.6592C228.208 58.7998 227.866 58.1406 227.183 57.6816C226.499 57.2227 225.518 56.9932 224.238 56.9932H218.159V54.3271H224.238C226.445 54.3271 228.164 54.7617 229.395 55.6309C230.625 56.5 231.24 57.7207 231.24 59.293V59.6592C231.24 60.6064 231.011 61.4463 230.552 62.1787C230.093 62.9111 229.429 63.502 228.56 63.9512ZM242.695 54.3271H245.933L255.264 73.5459V74H252.202L242.695 54.3271ZM233.364 74V73.5459L241.465 56.8027L243.091 60.2598L240.117 66.3242H246.079L247.339 69.0195H238.857L236.426 74H233.364ZM258.003 60.2305C258.003 58.4043 258.647 56.9639 259.937 55.9092C261.226 54.8545 262.974 54.3271 265.181 54.3271H272.109V56.9932H265.239C263.911 56.9932 262.876 57.2812 262.134 57.8574C261.401 58.4238 261.035 59.2148 261.035 60.2305V60.5527C261.035 61.5684 261.401 62.3594 262.134 62.9258C262.876 63.4922 263.911 63.7754 265.239 63.7754H272.109V66.4121H269.59L261.724 74H258.105V73.5459L265.444 66.4121H265.181C262.974 66.4121 261.226 65.8848 259.937 64.8301C258.647 63.7754 258.003 62.3496 258.003 60.5527V60.2305ZM274.263 54.3271H277.266V74H274.263V54.3271ZM2.75391 114V94.3271H5.75684V114H2.75391ZM22.2363 94.3271V94.7666L12.7441 103.98L21.9287 113.546V114H18.457L10.0488 105.387H7.9541V102.691H10.0488L18.6328 94.3271H22.2363ZM26.8359 114L42.627 94.3271H45.8936L30.1172 114H26.8359ZM29.8389 106.705L26.8359 110.514V94.3271H29.8389V106.705ZM42.8906 101.607L45.8936 97.7988V114H42.9199L42.8906 101.607ZM60.9082 114.293C57.7344 114.107 55.2197 113.136 53.3643 111.378C51.5088 109.61 50.5811 107.296 50.5811 104.435V103.922C50.5811 101.061 51.5088 98.7412 53.3643 96.9639C55.2295 95.1865 57.7441 94.2051 60.9082 94.0195V96.8027C58.5742 96.9688 56.7725 97.667 55.5029 98.8975C54.2432 100.128 53.6133 101.793 53.6133 103.893V104.464C53.6133 106.583 54.2383 108.253 55.4883 109.474C56.748 110.685 58.5547 111.363 60.9082 111.51V114.293ZM63.0908 94.0195C64.9756 94.1367 66.6699 94.5566 68.1738 95.2793C69.6777 96.002 70.8496 96.9541 71.6895 98.1357C72.5391 99.3174 72.9639 100.616 72.9639 102.032V102.296H69.9316V102.032C69.9316 100.646 69.292 99.4639 68.0127 98.4873C66.7432 97.5107 65.1025 96.9492 63.0908 96.8027V94.0195ZM63.0908 111.51C65.1221 111.363 66.7676 110.816 68.0273 109.869C69.2969 108.912 69.9316 107.73 69.9316 106.324V106.017H72.9639V106.324C72.9639 108.473 72.0361 110.294 70.1807 111.788C68.3252 113.272 65.9619 114.107 63.0908 114.293V111.51ZM90.3369 94.3271V96.9932L81.9727 97.0225L81.5479 107.818C81.4795 109.908 80.9717 111.461 80.0244 112.477C79.0869 113.492 77.6855 114 75.8203 114H74.4434V111.334H75.498C76.6211 111.334 77.4268 111.041 77.915 110.455C78.4033 109.859 78.6768 108.873 78.7354 107.496L79.248 94.3271H90.3369ZM92.5049 94.3271H95.5078V114H92.5049V94.3271ZM110.317 114.293C107.202 114.098 104.731 113.111 102.905 111.334C101.089 109.557 100.181 107.237 100.181 104.376V103.98C100.181 101.109 101.089 98.7803 102.905 96.9932C104.731 95.2061 107.202 94.2148 110.317 94.0195V96.8027C108.071 96.9883 106.323 97.7061 105.073 98.9561C103.833 100.196 103.213 101.861 103.213 103.951V104.435C103.213 106.515 103.833 108.175 105.073 109.415C106.313 110.646 108.062 111.344 110.317 111.51V114.293ZM112.515 111.51C114.683 111.314 116.406 110.582 117.686 109.312C118.975 108.043 119.619 106.417 119.619 104.435V103.951C119.619 101.861 118.994 100.191 117.744 98.9414C116.504 97.6816 114.761 96.9688 112.515 96.8027V94.0195C115.63 94.2148 118.096 95.2061 119.912 96.9932C121.738 98.7803 122.651 101.109 122.651 103.98V104.376C122.651 107.247 121.738 109.571 119.912 111.349C118.096 113.116 115.63 114.098 112.515 114.293V111.51ZM124.058 96.9932V94.3271H144.067V96.9932H124.058ZM135.542 99.0879V114H132.568V99.0879H135.542ZM151.992 94.3271H155.229L164.561 113.546V114H161.499L151.992 94.3271ZM142.661 114V113.546L150.762 96.8027L152.388 100.26L149.414 106.324H155.376L156.636 109.02H148.154L145.723 114H142.661Z" fill="#382B6A"/>
</svg>
