<svg width="483" height="326" viewBox="0 0 483 326" fill="none" xmlns="http://www.w3.org/2000/svg">
<g clip-path="url(#clip0_739_8902)">
<path d="M485.12 325.81H422.85C413.64 325.81 404.66 324.02 396.15 320.5C387.64 316.97 380.03 311.88 373.52 305.37C367.01 298.86 361.93 291.25 358.4 282.74C354.88 274.24 353.09 265.25 353.09 256.04V244.42C353.09 225.79 360.35 208.27 373.52 195.1C386.69 181.93 404.21 174.67 422.84 174.67H485.11V189.64H422.84C408.21 189.64 394.45 195.34 384.1 205.69C373.75 216.04 368.05 229.79 368.05 244.43V256.05C368.05 263.29 369.45 270.34 372.22 277.02C374.99 283.71 378.98 289.69 384.1 294.8C389.21 299.91 395.19 303.91 401.87 306.68C408.55 309.45 415.61 310.85 422.84 310.85H485.11V325.82L485.12 325.81ZM110.11 325.81H69.76C51.13 325.81 33.61 318.56 20.43 305.38C7.26 292.21 0 274.69 0 256.06V174.98H14.97V256.05C14.97 270.68 20.67 284.44 31.02 294.79C41.37 305.14 55.13 310.84 69.76 310.84H110.11V325.81ZM324.18 324.61H309.21V244.42C309.28 237.08 307.92 229.97 305.18 223.23C302.44 216.49 298.46 210.46 293.34 205.29C288.22 200.12 282.22 196.08 275.51 193.28C268.8 190.48 261.7 189.06 254.43 189.06C247.16 189.06 240.06 190.48 233.35 193.28C226.64 196.08 220.63 200.12 215.52 205.28C210.4 210.45 206.41 216.48 203.68 223.22C200.94 229.96 199.59 237.07 199.65 244.34V324.59H184.68V244.4C184.6 235.21 186.32 226.16 189.81 217.58C193.3 209 198.37 201.31 204.89 194.74C211.41 188.16 219.05 183.02 227.6 179.45C236.15 175.89 245.18 174.08 254.44 174.08C263.7 174.08 272.73 175.89 281.28 179.45C289.83 183.01 297.47 188.16 303.99 194.74C310.51 201.32 315.58 209.01 319.07 217.58C322.56 226.16 324.28 235.21 324.2 244.47V324.59L324.18 324.61ZM146.59 324.61H131.62V231.08H146.59V324.61ZM430.73 260.86H381.65V245.89H430.73V260.86ZM146.59 216.17H131.62V174.98H146.59V216.17ZM110.11 151.14H69.76C51.13 151.14 33.61 143.88 20.43 130.71C7.26 117.54 0 100.02 0 81.3899V0.309941H14.97V81.3899C14.97 96.0199 20.67 109.78 31.02 120.13C41.37 130.48 55.13 136.18 69.76 136.18H110.11V151.15V151.14ZM485.12 151.14H422.85C413.64 151.14 404.66 149.35 396.15 145.83C387.64 142.3 380.03 137.21 373.52 130.7C367.01 124.19 361.92 116.58 358.4 108.07C354.88 99.5699 353.09 90.5799 353.09 81.3699V69.7499C353.09 51.1199 360.35 33.5999 373.52 20.4199C386.7 7.25994 404.22 -5.85914e-05 422.85 -5.85914e-05H485.13V14.9699H422.86C408.23 14.9699 394.47 20.6699 384.12 31.0199C373.77 41.3699 368.07 55.1299 368.07 69.7599V81.3799C368.07 88.6199 369.47 95.6699 372.24 102.35C375.01 109.03 379 115.02 384.12 120.13C389.23 125.24 395.21 129.24 401.89 132.01C408.57 134.78 415.63 136.18 422.86 136.18H485.13V151.15L485.12 151.14ZM199.64 149.94H184.67V69.8299C184.59 60.5699 186.31 51.5199 189.8 42.9399C193.29 34.3599 198.36 26.6699 204.88 20.0899C211.4 13.5099 219.04 8.36994 227.59 4.80994C236.14 1.24994 245.17 -0.560059 254.43 -0.560059C263.69 -0.560059 272.72 1.24994 281.27 4.80994C289.82 8.36994 297.46 13.5199 303.98 20.0899C310.5 26.6699 315.57 34.3599 319.06 42.9399C322.55 51.5199 324.27 60.5699 324.19 69.8299L309.22 69.6999C309.29 62.4299 307.93 55.3199 305.19 48.5799C302.45 41.8399 298.47 35.8099 293.35 30.6399C288.23 25.4699 282.23 21.4299 275.52 18.6399C268.81 15.8499 261.71 14.4199 254.44 14.4199C247.17 14.4199 240.07 15.8399 233.36 18.6399C226.65 21.4399 220.65 25.4799 215.53 30.6399C210.41 35.7999 206.43 41.8399 203.69 48.5799C201.09 54.9899 199.73 61.7199 199.66 68.6199V149.95L199.64 149.94ZM146.59 149.94H131.62V56.4099H146.59V149.95V149.94ZM430.73 86.1999H381.65V71.2299H430.73V86.1999ZM254.43 86.1999H213.23V71.2299H254.43V86.1999ZM146.59 41.5099H131.62V0.309941H146.59V41.5099Z" fill="url(#paint0_linear_739_8902)"/>
</g>
<defs>
<linearGradient id="paint0_linear_739_8902" x1="447.18" y1="162.62" x2="-42.04" y2="162.62" gradientUnits="userSpaceOnUse">
<stop stop-color="#81898C"/>
<stop offset="0.46" stop-color="#A1A7AE"/>
<stop offset="1" stop-color="#929BA0"/>
</linearGradient>
<clipPath id="clip0_739_8902">
<rect width="483" height="326" fill="white"/>
</clipPath>
</defs>
</svg>
