<svg width="481" height="20" viewBox="0 0 481 20" fill="none" xmlns="http://www.w3.org/2000/svg">
<path d="M14.6665 14C14.6665 15.5333 14.1665 16.75 13.1665 17.65C12.1832 18.55 10.8582 19 9.1915 19H0.591504V1.25H8.7665C10.3498 1.25 11.6248 1.65 12.5915 2.45C13.5582 3.25 14.0415 4.36667 14.0415 5.8C14.0415 6.75 13.7915 7.55833 13.2915 8.225C12.8082 8.89167 12.1332 9.375 11.2665 9.675C12.3498 9.99167 13.1832 10.5167 13.7665 11.25C14.3665 11.9833 14.6665 12.9 14.6665 14ZM3.5415 3.575V8.575H8.0915C9.05817 8.575 9.80817 8.35 10.3415 7.9C10.8915 7.43333 11.1665 6.8 11.1665 6C11.1665 4.38333 10.1415 3.575 8.0915 3.575H3.5415ZM10.7915 15.925C11.4082 15.4083 11.7165 14.7 11.7165 13.8C11.7165 12.9 11.3998 12.1917 10.7665 11.675C10.1498 11.1583 9.2915 10.9 8.1915 10.9H3.5415V16.675H8.1665C9.29984 16.675 10.1748 16.425 10.7915 15.925ZM30.136 1.25H33.361V19H30.486V12.025C30.486 9.075 30.5444 6.61667 30.661 4.65C29.8277 6.15 28.4944 8.38333 26.661 11.35L21.911 19H18.736V1.25H21.611V8.45C21.611 11.4667 21.561 13.825 21.461 15.525C22.6277 13.4083 23.8777 11.3 25.211 9.2L30.136 1.25ZM51.1675 1.25V3.775H45.6925V19H42.7175V3.775H37.2675V1.25H51.1675ZM64.9011 19L63.5011 15H55.6761L54.3011 19H51.3011L57.7011 1.25H61.5761L67.9761 19H64.9011ZM56.5261 12.55H62.6511L61.9011 10.375L61.3261 8.7C60.4927 6.35 59.9177 4.61667 59.6011 3.5C59.2177 4.76667 58.5094 6.875 57.4761 9.825L57.2761 10.4L56.5261 12.55ZM85.3101 1.25H89.9351V19H87.0601V10.05C87.0601 8.21667 87.0934 6.00833 87.1601 3.425L85.9601 7.15L85.0101 10.05L82.0351 19H79.4351L76.4101 10.05C76.1767 9.3 75.9267 8.55833 75.6601 7.825L74.2601 3.575C74.2934 7.34167 74.3101 9.50833 74.3101 10.075V19H71.4851V1.25H76.1601L78.6851 8.75C79.5184 11.1 80.2101 13.2833 80.7601 15.3C81.3101 13.3667 81.9934 11.1833 82.8101 8.75L85.3101 1.25ZM106.425 1.25H109.65V19H106.775V12.025C106.775 9.075 106.833 6.61667 106.95 4.65C106.117 6.15 104.783 8.38333 102.95 11.35L98.2001 19H95.0251V1.25H97.9001V8.45C97.9001 11.4667 97.8501 13.825 97.7501 15.525C98.9168 13.4083 100.167 11.3 101.5 9.2L106.425 1.25ZM129.332 1.25V19H126.357V10.975H117.707V19H114.757V1.25H117.707V8.475H126.357V1.25H129.332ZM145.839 1.25H149.064V19H146.189V12.025C146.189 9.075 146.247 6.61667 146.364 4.65C145.531 6.15 144.197 8.38333 142.364 11.35L137.614 19H134.439V1.25H137.314V8.45C137.314 11.4667 137.264 13.825 137.164 15.525C138.331 13.4083 139.581 11.3 140.914 9.2L145.839 1.25ZM167.596 13.85C167.596 15.5333 166.937 16.8833 165.621 17.9C164.321 18.9 162.579 19.4 160.396 19.4C157.579 19.4 155.104 18.4167 152.971 16.45L154.696 14.425C155.662 15.275 156.579 15.8917 157.446 16.275C158.329 16.6417 159.321 16.825 160.421 16.825C161.737 16.825 162.771 16.5583 163.521 16.025C164.271 15.4917 164.646 14.725 164.646 13.725C164.646 12.8917 164.321 12.2417 163.671 11.775C163.037 11.3083 162.096 11.075 160.846 11.075H157.421V8.675H160.746C162.996 8.675 164.121 7.81667 164.121 6.1C164.121 5.3 163.787 4.65833 163.121 4.175C162.454 3.675 161.562 3.425 160.446 3.425C159.446 3.425 158.554 3.58333 157.771 3.9C156.987 4.21667 156.146 4.75833 155.246 5.525L153.496 3.5C154.579 2.56667 155.662 1.89167 156.746 1.475C157.829 1.05833 159.046 0.85 160.396 0.85C162.446 0.85 164.062 1.3 165.246 2.2C166.429 3.1 167.021 4.325 167.021 5.875C167.021 7.725 166.129 9.00833 164.346 9.725C166.512 10.4417 167.596 11.8167 167.596 13.85ZM183.251 1.25H186.476V19H183.601V12.025C183.601 9.075 183.66 6.61667 183.776 4.65C182.943 6.15 181.61 8.38333 179.776 11.35L175.026 19H171.851V1.25H174.726V8.45C174.726 11.4667 174.676 13.825 174.576 15.525C175.743 13.4083 176.993 11.3 178.326 9.2L183.251 1.25ZM203.933 2.725C204.999 3.69167 205.533 5.025 205.533 6.725C205.533 8.425 204.999 9.75833 203.933 10.725C202.899 11.6917 201.491 12.175 199.708 12.175H194.533V19H191.583V1.25H199.708C201.458 1.25 202.866 1.74167 203.933 2.725ZM199.233 3.7H194.533V9.725H199.233C200.283 9.725 201.099 9.46667 201.683 8.95C202.283 8.41667 202.583 7.675 202.583 6.725C202.583 5.75833 202.283 5.01667 201.683 4.5C201.099 3.96667 200.283 3.7 199.233 3.7ZM225.88 10.125C225.913 12.8083 225.13 15.0333 223.53 16.8C221.946 18.5667 219.863 19.4333 217.28 19.4C214.68 19.4 212.588 18.5333 211.005 16.8C209.438 15.05 208.655 12.825 208.655 10.125C208.655 7.425 209.438 5.20833 211.005 3.475C212.588 1.725 214.68 0.85 217.28 0.85C219.863 0.816666 221.946 1.68333 223.53 3.45C225.13 5.21667 225.913 7.44167 225.88 10.125ZM213.23 5.3C212.196 6.53333 211.68 8.14167 211.68 10.125C211.68 12.1083 212.196 13.7167 213.23 14.95C214.263 16.1833 215.613 16.8 217.28 16.8C218.963 16.8 220.313 16.1917 221.33 14.975C222.346 13.7417 222.855 12.125 222.855 10.125C222.855 8.125 222.346 6.51667 221.33 5.3C220.313 4.06667 218.963 3.45 217.28 3.45C215.613 3.45 214.263 4.06667 213.23 5.3ZM244.071 14C244.071 15.5333 243.571 16.75 242.571 17.65C241.587 18.55 240.262 19 238.596 19H229.996V1.25H238.171C239.754 1.25 241.029 1.65 241.996 2.45C242.962 3.25 243.446 4.36667 243.446 5.8C243.446 6.75 243.196 7.55833 242.696 8.225C242.212 8.89167 241.537 9.375 240.671 9.675C241.754 9.99167 242.587 10.5167 243.171 11.25C243.771 11.9833 244.071 12.9 244.071 14ZM232.946 3.575V8.575H237.496C238.462 8.575 239.212 8.35 239.746 7.9C240.296 7.43333 240.571 6.8 240.571 6C240.571 4.38333 239.546 3.575 237.496 3.575H232.946ZM240.196 15.925C240.812 15.4083 241.121 14.7 241.121 13.8C241.121 12.9 240.804 12.1917 240.171 11.675C239.554 11.1583 238.696 10.9 237.596 10.9H232.946V16.675H237.571C238.704 16.675 239.579 16.425 240.196 15.925ZM260.14 19L258.74 15H250.915L249.54 19H246.54L252.94 1.25H256.815L263.215 19H260.14ZM251.765 12.55H257.89L257.14 10.375L256.565 8.7C255.732 6.35 255.157 4.61667 254.84 3.5C254.457 4.76667 253.749 6.875 252.715 9.825L252.515 10.4L251.765 12.55ZM281.299 1.25V19H278.324V10.975H269.674V19H266.724V1.25H269.674V8.475H278.324V1.25H281.299ZM300.982 1.25V19H298.007V10.975H289.357V19H286.407V1.25H289.357V8.475H298.007V1.25H300.982ZM306.09 19V1.25H309.04V8H313.765C315.548 8 316.981 8.5 318.065 9.5C319.165 10.5 319.715 11.8333 319.715 13.5C319.715 15.2 319.165 16.5417 318.065 17.525C316.981 18.5083 315.548 19 313.765 19H306.09ZM309.04 16.55H313.29C314.39 16.55 315.24 16.2917 315.84 15.775C316.456 15.2417 316.765 14.4833 316.765 13.5C316.765 12.5167 316.456 11.7667 315.84 11.25C315.24 10.7167 314.39 10.45 313.29 10.45H309.04V16.55ZM324.815 1.25V19H321.865V1.25H324.815ZM342.098 1.25V3.75H332.873V8.6H341.473V11.075H332.873V16.5H342.348V19H329.923V1.25H342.098ZM368.067 1.25V19H365.092V10.975H356.442V19H353.492V1.25H356.442V8.475H365.092V1.25H368.067ZM385.175 19L383.775 15H375.95L374.575 19H371.575L377.975 1.25H381.85L388.25 19H385.175ZM376.8 12.55H382.925L382.175 10.375L381.6 8.7C380.766 6.35 380.191 4.61667 379.875 3.5C379.491 4.76667 378.783 6.875 377.75 9.825L377.55 10.4L376.8 12.55ZM405.983 19H403.008V3.75H394.708V19H391.758V1.25H405.983V19ZM422.475 1.25H425.7V19H422.825V12.025C422.825 9.075 422.883 6.61667 423 4.65C422.167 6.15 420.833 8.38333 419 11.35L414.25 19H411.075V1.25H413.95V8.45C413.95 11.4667 413.9 13.825 413.8 15.525C414.967 13.4083 416.217 11.3 417.55 9.2L422.475 1.25ZM443.506 1.25V3.775H438.031V19H435.056V3.775H429.606V1.25H443.506ZM458.963 19L453.288 10.975H450.338V19H447.388V1.25H450.338V8.475H453.313L458.713 1.25H462.063L455.713 9.625L462.363 19H458.963ZM477.177 1.25H480.402V19H477.527V12.025C477.527 9.075 477.585 6.61667 477.702 4.65C476.869 6.15 475.535 8.38333 473.702 11.35L468.952 19H465.777V1.25H468.652V8.45C468.652 11.4667 468.602 13.825 468.502 15.525C469.669 13.4083 470.919 11.3 472.252 9.2L477.177 1.25Z" fill="url(#paint0_linear_660_10514)"/>
<defs>
<linearGradient id="paint0_linear_660_10514" x1="481" y1="26.0003" x2="-94" y2="26.0003" gradientUnits="userSpaceOnUse">
<stop stop-color="#81898C"/>
<stop offset="0.463542" stop-color="#A1A7AE"/>
<stop offset="1" stop-color="#929BA0"/>
</linearGradient>
</defs>
</svg>
